<?xml version="1.0" encoding="UTF-8"?>
<svg version="1.1" xmlns="http://www.w3.org/2000/svg" width="1600" height="1131">
<path d="M0 0 C0.9658049 -0.00350464 1.9316098 -0.00700928 2.92668152 -0.01062012 C6.0925535 -0.01935919 9.25819833 -0.01361179 12.42407227 -0.00683594 C14.65112856 -0.00818582 16.87818457 -0.01012903 19.10523987 -0.01263428 C23.76777966 -0.01557583 28.43024261 -0.01132277 33.09277344 -0.00195312 C39.01629815 0.00938086 44.93964036 0.00291425 50.86315823 -0.00909805 C55.46449609 -0.0163942 60.06579216 -0.01399251 64.66713142 -0.00884247 C66.84801315 -0.00752417 69.02889889 -0.0090885 71.20977592 -0.01380157 C111.95981851 -0.08249348 152.83984402 7.07388802 184.80297852 34.25878906 C185.31626709 34.67708984 185.82955566 35.09539062 186.35839844 35.52636719 C193.47161552 41.33055856 199.62833511 48.67770055 204.80297852 56.25878906 C204.80297852 56.91878906 204.80297852 57.57878906 204.80297852 58.25878906 C205.6440918 58.62617188 205.6440918 58.62617188 206.50219727 59.00097656 C214.47494505 63.3595925 223.28526597 72.00443245 227.24047852 80.25878906 C227.42610352 80.91878906 227.61172852 81.57878906 227.80297852 82.25878906 C231.1888864 79.61612925 234.14550171 76.97099763 236.92797852 73.69628906 C245.90044537 63.25131671 255.79404984 54.47481975 266.80297852 46.25878906 C267.34615723 45.84419434 267.88933594 45.42959961 268.44897461 45.00244141 C284.24793519 32.9562711 301.51941079 22.26915058 321.19750977 18.36425781 C322.73286744 18.05928054 324.26802226 17.75328031 325.80297852 17.44628906 C326.56288086 17.29482422 327.3227832 17.14335937 328.10571289 16.98730469 C333.42923442 15.82406733 337.78296573 13.97571061 342.49047852 11.25878906 C377.500367 -8.7468615 435.6378938 -2.26928646 473.02172852 7.91113281 C501.26141739 15.98417381 527.40075265 28.49817122 550.80297852 46.25878906 C551.66922852 46.91234375 552.53547852 47.56589844 553.42797852 48.23925781 C560.60298212 53.81598337 567.23052665 59.99394965 573.80297852 66.25878906 C574.54862061 66.96938477 574.54862061 66.96938477 575.30932617 67.69433594 C581.19948772 73.34857381 586.46747185 79.23000727 591.53735352 85.62207031 C594.61074839 89.19886607 598.08778009 92.18156866 601.64672852 95.26269531 C604.23025923 97.65433335 605.96732081 100.26734688 607.80297852 103.25878906 C608.66922852 104.12503906 609.53547852 104.99128906 610.42797852 105.88378906 C612.54108315 107.9968937 613.691069 109.52955663 614.80297852 112.25878906 C615.46297852 112.25878906 616.12297852 112.25878906 616.80297852 112.25878906 C618.47441901 114.44729389 619.9444824 116.73033698 621.43505859 119.04394531 C621.80139404 119.61242187 622.16772949 120.18089844 622.54516602 120.76660156 C622.91996094 121.3521582 623.29475586 121.93771484 623.6809082 122.54101562 C624.70872421 124.11449548 625.78865392 125.65361274 626.87329102 127.18847656 C647.37282036 156.91657631 657.72240365 194.36491076 658.80297852 230.25878906 C658.84293945 231.16113281 658.88290039 232.06347656 658.92407227 232.99316406 C659.85628621 271.81713301 648.71233809 321.82667703 621.80297852 351.25878906 C619.18110358 350.21003909 618.00926491 349.60947593 616.55297852 347.13378906 C616.30547852 346.51503906 616.05797852 345.89628906 615.80297852 345.25878906 C612.43067668 349.25559123 608.9138395 353.43537307 606.80297852 358.25878906 C607.47816306 360.86349237 607.47816306 360.86349237 608.80297852 363.25878906 C608.98870369 367.29831164 608.56799929 369.26610417 606.0793457 372.49536133 C603.72573525 375.00132835 601.29308936 377.3885031 598.80297852 379.75878906 C597.97668945 380.57476563 597.15040039 381.39074219 596.29907227 382.23144531 C581.91147571 396.25878906 581.91147571 396.25878906 577.80297852 396.25878906 C577.80297852 396.91878906 577.80297852 397.57878906 577.80297852 398.25878906 C576.40454102 399.45019531 576.40454102 399.45019531 574.42797852 400.82128906 C571.1808716 403.16893605 568.23099739 405.6493172 565.30297852 408.38378906 C553.27725388 419.30959986 539.86845568 428.19581466 525.80297852 436.25878906 C525.05709473 436.68933594 524.31121094 437.11988281 523.54272461 437.56347656 C510.52591112 444.99040278 496.96989403 450.42277399 482.80297852 455.25878906 C482.02180664 455.525625 481.24063477 455.79246094 480.43579102 456.06738281 C468.48494102 460.05819012 456.21939998 462.24520923 443.80297852 464.25878906 C442.69438477 464.4534375 441.58579102 464.64808594 440.44360352 464.84863281 C423.10422821 466.80210321 404.59821376 467.40378322 390.09594727 456.45019531 C384.17089202 450.78757863 378.29753565 442.70159221 377.65161133 434.28686523 C377.60715748 432.14838836 377.62771176 430.02205947 377.67797852 427.88378906 C377.69151367 426.77970703 377.69151367 426.77970703 377.70532227 425.65332031 C377.72867707 423.85500026 377.76454016 422.05684995 377.80297852 420.25878906 C375.49297852 419.59878906 373.18297852 418.93878906 370.80297852 418.25878906 C370.76172852 419.04253906 370.72047852 419.82628906 370.67797852 420.63378906 C368.91734473 427.92784331 364.47621292 434.39601671 358.80297852 439.25878906 C358.21774414 439.76152344 357.63250977 440.26425781 357.02954102 440.78222656 C348.32295843 447.83696739 338.54770993 449.75991874 327.48266602 449.04394531 C307.21020653 446.66295175 289.81711154 436.4892316 273.48657227 424.83691406 C272.88441895 424.41603516 272.28226563 423.99515625 271.66186523 423.56152344 C270.36500726 422.65266684 269.0810077 421.72530439 267.80737305 420.78417969 C264.35939668 418.38111998 262.44393901 417.28626861 258.15844727 417.10253906 C254.103769 418.49972738 251.88215441 420.62821493 249.11547852 423.75878906 C217.3428419 457.47177764 168.78151679 465.96987654 124.44638062 467.33114624 C118.48225731 467.46772347 112.51851793 467.50480095 106.55297852 467.50878906 C105.63566956 467.50946381 104.7183606 467.51013855 103.77325439 467.51083374 C53.93127541 467.45298733 3.56962148 457.37857242 -35.19702148 424.25878906 C-36.07745117 423.52402344 -36.95788086 422.78925781 -37.86499023 422.03222656 C-45.38978867 415.51568743 -51.37942559 408.27969877 -57.19702148 400.25878906 C-57.85299316 399.35918457 -57.85299316 399.35918457 -58.5222168 398.44140625 C-78.77458585 370.32403951 -92.36252949 330.17530156 -89.19702148 295.25878906 C-88.54059485 291.41846996 -87.59074916 287.89290141 -86.19702148 284.25878906 C-85.60920898 282.71191406 -85.60920898 282.71191406 -85.00952148 281.13378906 C-79.20387813 271.92483753 -72.13513561 265.52987557 -61.44702148 262.88378906 C-51.85117483 261.33414923 -41.65939629 262.27447769 -33.19702148 267.25878906 C-24.22974736 273.93822492 -19.63724139 281.03667026 -15.05639648 291.02441406 C-14.25153809 292.7767334 -14.25153809 292.7767334 -13.43041992 294.56445312 C-13.02339844 295.45358398 -12.61637695 296.34271484 -12.19702148 297.25878906 C-12.01026284 268.53045203 -11.86912625 239.80220577 -11.78252411 211.07338428 C-11.74124697 197.73449116 -11.6849575 184.39602007 -11.59350586 171.05737305 C-11.51384828 159.43341774 -11.46217464 147.80973529 -11.44431353 136.18551463 C-11.43387026 130.02857899 -11.4092737 123.87242406 -11.35118103 117.7157383 C-11.29696622 111.92321629 -11.28011152 106.13179809 -11.29216003 100.33904648 C-11.28995525 98.2108975 -11.27398941 96.08271243 -11.24337769 93.95478249 C-11.20365798 91.05184997 -11.21310102 88.15310242 -11.23498535 85.25007629 C-11.20003125 83.98207324 -11.20003125 83.98207324 -11.16437101 82.68845397 C-11.21328974 80.29360248 -11.33703479 78.49693971 -12.19702148 76.25878906 C-14.61736106 74.02339028 -17.24323939 72.67335128 -20.19702148 71.25878906 C-21.40397653 70.54647748 -22.60467298 69.82328949 -23.79467773 69.08300781 C-24.65053467 68.55984985 -24.65053467 68.55984985 -25.52368164 68.02612305 C-35.05234127 62.09851946 -42.29288636 55.41649516 -45.78295898 44.41113281 C-47.53310374 35.31368225 -46.67389462 26.12939728 -41.94311523 18.14160156 C-34.93504768 8.02095905 -24.74236847 2.91744883 -12.88960075 0.65973663 C-8.58591994 0.01888257 -4.34417462 -0.01980604 0 0 Z M108.80297852 102.25878906 C108.80297852 118.09878906 108.80297852 133.93878906 108.80297852 150.25878906 C114.57620011 142.56116027 114.1408 135.22235181 114.11547852 125.88378906 C114.1315918 124.70300781 114.14770508 123.52222656 114.16430664 122.30566406 C114.16801562 115.6443365 113.98595128 109.2697356 110.80297852 103.25878906 C110.14297852 102.92878906 109.48297852 102.59878906 108.80297852 102.25878906 Z M108.80297852 242.25878906 C108.80297852 287.46878906 108.80297852 332.67878906 108.80297852 379.25878906 C135.37876615 376.30592377 153.01268787 370.45900517 170.17797852 350.38378906 C182.65951888 334.02777054 183.45901862 315.06801874 181.80297852 295.25878906 C180.02567163 284.66529948 175.24048393 275.98910965 167.80297852 268.25878906 C167.27188477 267.64003906 166.74079102 267.02128906 166.19360352 266.38378906 C152.24806122 250.91942533 128.66888238 244.74202705 108.80297852 242.25878906 Z M380.52563477 296.00097656 C379.6477832 296.37480469 378.76993164 296.74863281 377.86547852 297.13378906 C375.18422516 298.26315351 372.5647809 299.33818827 369.80297852 300.25878906 C370.92314956 302.55983007 372.10563968 304.80083463 373.35375977 307.03613281 C377.5797466 314.61667239 380.89584453 322.07326434 383.80297852 330.25878906 C384.13297852 330.25878906 384.46297852 330.25878906 384.80297852 330.25878906 C384.80297852 319.03878906 384.80297852 307.81878906 384.80297852 296.25878906 C382.80025395 294.96478086 382.80025395 294.96478086 380.52563477 296.00097656 Z " fill="#362F2A" transform="translate(518.197021484375,224.7412109375)"/>
<path d="M0 0 C0.86625 0.65355469 1.7325 1.30710937 2.625 1.98046875 C9.80000361 7.55719431 16.42754813 13.73516059 23 20 C23.49709473 20.47373047 23.99418945 20.94746094 24.50634766 21.43554688 C30.3965092 27.08978475 35.66449333 32.97121821 40.734375 39.36328125 C43.80776987 42.940077 47.28480157 45.9227796 50.84375 49.00390625 C53.42728071 51.39554428 55.1643423 54.00855782 57 57 C57.86625 57.86625 58.7325 58.7325 59.625 59.625 C61.73810464 61.73810464 62.88809049 63.27076756 64 66 C64.66 66 65.32 66 66 66 C67.6714405 68.18850482 69.14150389 70.47154792 70.63208008 72.78515625 C70.99841553 73.35363281 71.36475098 73.92210937 71.7421875 74.5078125 C72.11698242 75.09336914 72.49177734 75.67892578 72.87792969 76.28222656 C73.90574569 77.85570641 74.9856754 79.39482368 76.0703125 80.9296875 C96.56984184 110.65778725 106.91942513 148.10612169 108 184 C108.03996094 184.90234375 108.07992188 185.8046875 108.12109375 186.734375 C109.05330769 225.55834394 97.90935958 275.56788796 71 305 C68.37812506 303.95125002 67.20628639 303.35068687 65.75 300.875 C65.5025 300.25625 65.255 299.6375 65 299 C61.62769817 302.99680217 58.11086099 307.176584 56 312 C56.67518454 314.60470331 56.67518454 314.60470331 58 317 C58.18572518 321.03952258 57.76502077 323.00731511 55.27636719 326.23657227 C52.92275673 328.74253929 50.49011084 331.12971404 48 333.5 C47.17371094 334.31597656 46.34742188 335.13195312 45.49609375 335.97265625 C31.10849719 350 31.10849719 350 27 350 C27 350.66 27 351.32 27 352 C25.6015625 353.19140625 25.6015625 353.19140625 23.625 354.5625 C20.37789309 356.91014698 17.42801888 359.39052813 14.5 362.125 C2.47427536 373.0508108 -10.93452283 381.9370256 -25 390 C-25.74588379 390.43054688 -26.49176758 390.86109375 -27.26025391 391.3046875 C-40.2770674 398.73161372 -53.83308449 404.16398493 -68 409 C-69.17175781 409.40025391 -69.17175781 409.40025391 -70.3671875 409.80859375 C-82.3180375 413.79940106 -94.58357853 415.98642016 -107 418 C-108.66289063 418.29197266 -108.66289063 418.29197266 -110.359375 418.58984375 C-127.69875031 420.54331414 -146.20476475 421.14499416 -160.70703125 410.19140625 C-167.41572015 403.77986541 -172.72087764 395.52662269 -173.1953125 386.1328125 C-173.18221369 384.79673363 -173.15865184 383.46071923 -173.125 382.125 C-173.11597656 381.43664062 -173.10695313 380.74828125 -173.09765625 380.0390625 C-173.07432513 378.35922162 -173.03846326 376.67956254 -173 375 C-170.23723823 375.52268466 -167.6739124 376.10869587 -165 377 C-164.87882813 376.38253906 -164.75765625 375.76507812 -164.6328125 375.12890625 C-164.38144531 373.85853516 -164.38144531 373.85853516 -164.125 372.5625 C-163.85236328 371.18384766 -163.85236328 371.18384766 -163.57421875 369.77734375 C-163.07796063 367.37707487 -162.51845844 365.00561919 -161.9375 362.625 C-159.68054702 352.42739707 -159.84228984 341.89092738 -159.875 331.5 C-159.87113281 330.27152344 -159.86726562 329.04304688 -159.86328125 327.77734375 C-158.87744992 315.18161258 -158.87744992 315.18161258 -162 304 C-162.53722962 301.71677411 -163.03005752 299.42301875 -163.5 297.125 C-164.54701581 292.00798915 -164.54701581 292.00798915 -166 287 C-166.1539263 284.19839498 -166.25738045 281.41701575 -166.31640625 278.61328125 C-166.33718735 277.79627243 -166.35796844 276.97926361 -166.37937927 276.13749695 C-166.44473079 273.52924966 -166.50369273 270.92090225 -166.5625 268.3125 C-166.60569892 266.54360946 -166.64931365 264.77472903 -166.69335938 263.00585938 C-166.80039743 258.67067537 -166.90170544 254.33539071 -167 250 C-168.10408203 250.45052734 -168.10408203 250.45052734 -169.23046875 250.91015625 C-170.20628906 251.29042969 -171.18210937 251.67070313 -172.1875 252.0625 C-173.15042969 252.44535156 -174.11335937 252.82820313 -175.10546875 253.22265625 C-178.24961096 254.06703452 -179.93251968 254.01716622 -183 253 C-184.80078125 251.00390625 -184.80078125 251.00390625 -186.3125 248.5625 C-186.82425781 247.75941406 -187.33601562 246.95632813 -187.86328125 246.12890625 C-189 244 -189 244 -189 242 C-189.66 242 -190.32 242 -191 242 C-192.34813244 240.46445901 -193.62715023 238.86809091 -194.875 237.25 C-203.15485105 226.92672417 -212.56570822 218.13472334 -223 210 C-224.01835938 209.18789063 -225.03671875 208.37578125 -226.0859375 207.5390625 C-233.72314795 201.49395889 -241.65190747 196.02102308 -250 191 C-251.21792236 190.26692627 -251.21792236 190.26692627 -252.46044922 189.51904297 C-263.39274278 183.00460781 -274.48213933 177.0864995 -286.125 171.9375 C-287.11862549 171.49680176 -288.11225098 171.05610352 -289.13598633 170.60205078 C-296.28187087 167.5282324 -303.53505247 165.16988102 -311 163 C-312.39484619 162.5836731 -312.39484619 162.5836731 -313.81787109 162.15893555 C-327.19978314 158.17385375 -340.03603084 155.02636524 -354 154 C-354 153.34 -354 152.68 -354 152 C-353.42894531 151.77828125 -352.85789062 151.5565625 -352.26953125 151.328125 C-338.16303347 145.13831039 -326.71175051 132.5057373 -320.90234375 118.34375 C-320.60457031 117.5703125 -320.30679688 116.796875 -320 116 C-319.65066406 115.1234375 -319.30132813 114.246875 -318.94140625 113.34375 C-310.87435816 92.30441578 -310.5012557 67.2856733 -318 46 C-318.74291452 44.5066159 -319.51209101 43.02587401 -320.3125 41.5625 C-322 38 -322 38 -321.44921875 36.16015625 C-319.417272 33.13140543 -316.99630452 30.5191069 -314.5 27.875 C-313.96101074 27.30023926 -313.42202148 26.72547852 -312.86669922 26.13330078 C-311.25018833 24.41668158 -309.62552683 22.7080771 -308 21 C-307.16726563 20.113125 -306.33453125 19.22625 -305.4765625 18.3125 C-298.86539019 11.45972339 -291.59466219 5.70275346 -284 0 C-283.4539209 -0.41749512 -282.9078418 -0.83499023 -282.34521484 -1.26513672 C-266.54876259 -13.30712527 -249.27868904 -23.9906066 -229.60546875 -27.89453125 C-228.07011107 -28.19950852 -226.53495626 -28.50550875 -225 -28.8125 C-224.24009766 -28.96396484 -223.48019531 -29.11542969 -222.69726562 -29.27148438 C-217.37374409 -30.43472173 -213.02001279 -32.28307845 -208.3125 -35 C-148.29621875 -69.29501786 -50.09200243 -38.01625185 0 0 Z " fill="#000000" transform="translate(1069,271)"/>
<path d="M0 0 C27.86364934 -0.79469106 54.14517909 7.29433798 74.890625 26.5078125 C76.3531722 27.89209631 77.79897862 29.29453328 79.21875 30.72265625 C82.10494945 32.66264745 83.93981389 32.57484185 87.3515625 32.15625 C89.25364547 31.25255954 89.25364547 31.25255954 90.8515625 29.78125 C91.53347656 29.23339844 92.21539063 28.68554688 92.91796875 28.12109375 C93.72105469 27.47269531 94.52414062 26.82429687 95.3515625 26.15625 C121.1043459 6.51767582 148.54075868 -3.05419912 181.16821289 1.17407227 C193.17130091 2.90212131 203.9350099 6.52932499 214.890625 11.5703125 C221.88290014 15.00183089 221.88290014 15.00183089 229.3515625 14.15625 C230.74854346 13.25183005 232.12152886 12.30988409 233.4765625 11.34375 C242.52129969 4.97723448 253.14689369 3.01269542 264.02734375 2.99511719 C264.77316711 2.99015228 265.51899048 2.98518738 266.28741455 2.98007202 C268.74630685 2.96551807 271.20513425 2.95865339 273.6640625 2.953125 C274.93852737 2.94888393 274.93852737 2.94888393 276.23873901 2.94455719 C280.75095934 2.92957842 285.26314791 2.92034548 289.77539062 2.91601562 C293.46429489 2.91165903 297.15296158 2.89787624 300.84179688 2.875 C372.84052397 2.43745959 372.84052397 2.43745959 396.7890625 25.96875 C401.21787748 30.48417991 404.42976577 35.30210203 407.64453125 40.75390625 C410.44717438 44.69812941 414.24031639 46.74519836 418.3515625 49.15625 C424.02162335 52.62062122 426.72051978 57.16979058 429.6640625 62.96875 C430.17078491 63.96430908 430.17078491 63.96430908 430.68774414 64.97998047 C438.36378708 80.96153684 437.77656123 102.83625414 432.65625 119.5390625 C432.01042969 121.32957031 432.01042969 121.32957031 431.3515625 123.15625 C431.02140137 124.13029785 431.02140137 124.13029785 430.68457031 125.12402344 C424.50022781 143.00427729 412.14809647 154.23909609 397.04296875 164.92822266 C394.28572133 166.93009254 391.7799684 169.17725823 389.25 171.453125 C364.52470486 193.63466549 334.39243628 205.48166459 301.16015625 205.45703125 C299.85305191 205.46131638 298.54594757 205.4656015 297.19923401 205.47001648 C294.45545343 205.47740476 291.71180172 205.4772407 288.96801758 205.47192383 C285.48641175 205.46611979 282.0053363 205.48311849 278.52381802 205.5062685 C275.15257717 205.52469879 271.7814469 205.52081794 268.41015625 205.51953125 C267.17857285 205.528741 265.94698944 205.53795074 264.67808533 205.54743958 C252.04886797 205.48068399 239.7711887 203.36936573 230.38671875 194.24609375 C229.26526971 193.05102661 228.17043838 191.82980466 227.1171875 190.57421875 C224.52633128 188.493509 222.65727968 188.2688535 219.3515625 188.15625 C216.02842725 189.33334957 216.02842725 189.33334957 212.7265625 191.21875 C211.80979736 191.70093994 211.80979736 191.70093994 210.87451172 192.19287109 C209.02532649 193.16615172 207.18739636 194.1580532 205.3515625 195.15625 C179.5406173 209.09817247 150.61995845 211.92265042 122.34765625 204.08984375 C106.45736111 199.15162895 93.59870176 190.62147712 81.3515625 179.59375 C78.31735863 177.12845936 77.13854501 176.45689594 73.3515625 176.15625 C71.30147665 176.9718634 71.30147665 176.9718634 69.4140625 178.46875 C68.63160156 179.025625 67.84914063 179.5825 67.04296875 180.15625 C65.11158624 181.59147183 63.18212128 183.02927548 61.25390625 184.46875 C47.36592277 194.73325082 33.25971489 202.27357346 16.3515625 206.15625 C15.289375 206.40117188 14.2271875 206.64609375 13.1328125 206.8984375 C-12.36840576 211.69634712 -41.59179933 207.55361145 -63.38818359 192.99414062 C-70.42185263 188.03012624 -76.75852839 182.43785257 -82.6484375 176.15625 C-83.6384375 175.16625 -84.6284375 174.17625 -85.6484375 173.15625 C-87.6284375 177.11625 -87.6284375 177.11625 -89.6484375 181.15625 C-91.9584375 181.15625 -94.2684375 181.15625 -96.6484375 181.15625 C-97.6384375 178.51625 -98.6284375 175.87625 -99.6484375 173.15625 C-100.14472656 174.2184375 -100.64101563 175.280625 -101.15234375 176.375 C-107.38373068 189.45318131 -113.30871346 198.20562912 -127.01953125 204.19140625 C-137.11826526 207.75664075 -147.94642881 207.24637379 -157.89453125 203.484375 C-164.62207184 200.23988734 -169.76134541 195.54261409 -174.26171875 189.63671875 C-175.88279644 187.90604708 -177.48973414 187.0998197 -179.6484375 186.15625 C-180.2671875 186.81625 -180.8859375 187.47625 -181.5234375 188.15625 C-183.6484375 190.15625 -183.6484375 190.15625 -185.6484375 190.15625 C-185.89464844 190.7440625 -186.14085937 191.331875 -186.39453125 191.9375 C-190.17497051 198.62687538 -198.58966969 202.76039085 -205.6484375 205.15625 C-217.62181305 208.10535728 -228.83816522 206.18708653 -239.3359375 200.03125 C-251.47370703 191.84809931 -255.97022466 178.78274896 -260.43359375 165.41015625 C-260.77149429 164.4128096 -261.10939484 163.41546295 -261.45753479 162.38789368 C-262.5473435 159.16662142 -263.62907659 155.94269911 -264.7109375 152.71875 C-265.46807081 150.47850378 -266.22572547 148.2384337 -266.98388672 145.99853516 C-270.42400207 135.82079311 -273.83184969 125.63296955 -277.18359375 115.42578125 C-277.45154251 114.61228714 -277.71949127 113.79879303 -277.99555969 112.96064758 C-279.21695835 109.252427 -280.43164318 105.54242252 -281.62915039 101.82641602 C-285.76261994 89.13578116 -290.85410143 76.93361183 -297.3984375 65.28125 C-303.90499988 53.20876717 -307.53525394 41.02130895 -303.5234375 27.21875 C-299.95651673 18.35145165 -293.00115349 11.09928023 -284.4609375 6.90625 C-267.95794039 0.2495789 -246.92835868 1.49768442 -230.7734375 8.28125 C-230.15452637 8.5592041 -229.53561523 8.8371582 -228.89794922 9.12353516 C-224.96133827 10.84839933 -221.9359698 11.64107995 -217.6484375 11.15625 C-215.10587594 10.20434659 -215.10587594 10.20434659 -212.6484375 8.84375 C-198.1788562 1.98871283 -178.12719382 0.28476324 -162.6484375 5.15625 C-158.42332156 6.98082743 -154.36251265 9.10086583 -150.3125 11.28125 C-147.15110908 12.93711887 -144.15678608 14.3749791 -140.6484375 15.15625 C-138.38121553 14.51815656 -138.38121553 14.51815656 -136.3984375 13.09375 C-135.62757813 12.62195313 -134.85671875 12.15015625 -134.0625 11.6640625 C-133.26585937 11.16648437 -132.46921875 10.66890625 -131.6484375 10.15625 C-130.03831389 9.23394619 -128.41286174 8.33790507 -126.7734375 7.46875 C-126.05414062 7.07300781 -125.33484375 6.67726563 -124.59375 6.26953125 C-115.49489711 2.83030967 -105.94470916 2.81853013 -96.3359375 2.84375 C-94.5115918 2.81958008 -94.5115918 2.81958008 -92.65039062 2.79492188 C-80.27906466 2.78835187 -69.35898988 4.52991857 -58.66015625 10.94921875 C-53.25141183 13.11692566 -48.04685926 12.93588874 -42.6484375 10.765625 C-41.30971296 10.15756571 -39.97646943 9.53732105 -38.6484375 8.90625 C-26.3053148 3.43851161 -13.47982718 0.57729453 0 0 Z M-3.6484375 80.15625 C-6.7351779 96.44431763 -7.26051962 115.73812681 2.3515625 130.15625 C6.53003421 130.56724722 9.2504477 130.5722267 13.1640625 129.09375 C16.99502448 125.70061224 18.12849347 122.32582554 18.63671875 117.3828125 C18.98787548 105.5045544 15.53484547 94.82449634 7.359375 86.0078125 C3.74018618 82.66177 1.32235471 80.85405619 -3.6484375 80.15625 Z M158.3515625 80.15625 C156.46914393 85.7435083 156.00093188 90.71480587 156.0390625 96.59375 C156.04252686 97.46467285 156.04599121 98.3355957 156.04956055 99.23291016 C156.26036594 115.86835382 156.26036594 115.86835382 163.3515625 130.15625 C168.68199645 130.51161226 172.00879506 130.60491826 176.3515625 127.15625 C180.66931227 120.67962535 180.06289024 112.09906931 178.6640625 104.65625 C176.32551667 95.51172942 171.8377659 87.99344563 164.3515625 82.15625 C161.08332429 80.61333115 161.08332429 80.61333115 158.3515625 80.15625 Z M331.3515625 89.15625 C331.3515625 97.73625 331.3515625 106.31625 331.3515625 115.15625 C331.6815625 115.15625 332.0115625 115.15625 332.3515625 115.15625 C332.3515625 106.57625 332.3515625 97.99625 332.3515625 89.15625 C332.0215625 89.15625 331.6915625 89.15625 331.3515625 89.15625 Z " fill="#000000" transform="translate(739.6484375,695.84375)"/>
<path d="M0 0 C0.9658049 -0.00350464 1.9316098 -0.00700928 2.92668152 -0.01062012 C6.0925535 -0.01935919 9.25819833 -0.01361179 12.42407227 -0.00683594 C14.65112856 -0.00818582 16.87818457 -0.01012903 19.10523987 -0.01263428 C23.76777966 -0.01557583 28.43024261 -0.01132277 33.09277344 -0.00195312 C39.01629815 0.00938086 44.93964036 0.00291425 50.86315823 -0.00909805 C55.46449609 -0.0163942 60.06579216 -0.01399251 64.66713142 -0.00884247 C66.84801315 -0.00752417 69.02889889 -0.0090885 71.20977592 -0.01380157 C111.95981851 -0.08249348 152.83984402 7.07388802 184.80297852 34.25878906 C185.31554199 34.67636475 185.82810547 35.09394043 186.35620117 35.52416992 C193.28306667 41.1749209 198.57342256 48.0561772 203.80297852 55.25878906 C199.80863386 55.25878906 197.11558911 53.46558684 193.67797852 51.63378906 C187.84727417 48.62045314 182.00156657 46.04480272 175.80297852 43.88378906 C174.78179932 43.52679932 174.78179932 43.52679932 173.73999023 43.16259766 C154.44041156 36.6257196 134.39049667 36.94118738 114.22875977 36.84472656 C111.7224212 36.82597183 109.21608866 36.80639539 106.70976257 36.78604126 C100.17849313 36.73516826 93.64720331 36.69530539 87.11584473 36.65789795 C80.42491372 36.61859459 73.73407056 36.56661257 67.04321289 36.51660156 C53.96319334 36.42037459 40.88312671 36.33544059 27.80297852 36.25878906 C28.29797852 38.23878906 28.29797852 38.23878906 28.80297852 40.25878906 C30.03661133 40.29746094 30.03661133 40.29746094 31.29516602 40.33691406 C43.72269565 40.96833589 53.29989685 44.26215007 61.92797852 53.50878906 C71.93446896 65.2912406 72.1156023 78.85236037 72.05021667 93.85386658 C72.05263109 95.14720856 72.05504551 96.44055054 72.05753309 97.7730847 C72.0638738 101.31947655 72.05793584 104.86575212 72.04976881 108.4121362 C72.04313477 112.25323577 72.04815246 116.09432353 72.051651 119.9354248 C72.05666931 127.44099973 72.05108205 134.94653027 72.0418007 142.45209967 C72.03137538 151.19943761 72.03148795 159.94676617 72.03197328 168.69410915 C72.03247288 184.30039524 72.02333834 199.90666077 72.00878906 215.51293945 C71.99468674 230.64770889 71.9876191 245.78246024 71.98828125 260.91723633 C71.98832121 261.85050398 71.98836116 262.78377164 71.98840233 263.74532013 C71.98844268 264.67699734 71.98848304 265.60867454 71.98852462 266.56858438 C71.98921459 283.82086796 71.98332588 301.07314388 71.9743714 318.32542498 C71.97135768 324.42024245 71.97029217 330.5150585 71.9698391 336.60987663 C71.96915665 344.03357336 71.96468722 351.45725717 71.95550629 358.88094842 C71.95089376 362.66714061 71.94784082 366.45331629 71.94910049 370.23951149 C71.95039983 374.3438917 71.94394217 378.44822304 71.93669128 382.55259705 C71.93823989 383.74830619 71.93978849 384.94401534 71.94138402 386.1759581 C71.92539419 391.64355059 71.78127996 396.87449611 70.80297852 402.25878906 C59.6612853 398.84705756 51.05426482 392.29293625 42.80297852 384.25878906 C41.62735352 383.17597656 41.62735352 383.17597656 40.42797852 382.07128906 C35.57659654 377.48214395 31.90251179 372.76064205 28.47094727 367.03613281 C27.42103165 365.28791267 26.32472758 363.56595298 25.16625977 361.88769531 C17.16516447 350.23108794 5.80297852 330.83977207 5.80297852 316.25878906 C5.14297852 315.92878906 4.48297852 315.59878906 3.80297852 315.25878906 C3.02514648 313.24926758 3.02514648 313.24926758 2.29516602 310.63769531 C2.0309082 309.70248047 1.76665039 308.76726562 1.49438477 307.80371094 C1.2249707 306.81951172 0.95555664 305.8353125 0.67797852 304.82128906 C0.40083008 303.84095703 0.12368164 302.860625 -0.16186523 301.85058594 C-2.19702148 294.56713266 -2.19702148 294.56713266 -2.19702148 292.25878906 C-5.32572581 292.94325666 -5.32572581 292.94325666 -8.19702148 295.25878906 C-9.05523245 298.91833018 -9.18428802 302.50878342 -9.19702148 306.25878906 C-8.53702148 306.25878906 -7.87702148 306.25878906 -7.19702148 306.25878906 C-7.17124023 307.144375 -7.14545898 308.02996094 -7.11889648 308.94238281 C-6.40203343 324.59932356 -2.3845855 338.84993449 3.13305664 353.4609375 C3.6912943 354.95906509 4.21277822 356.47082377 4.72485352 357.98535156 C7.51449772 365.85425361 12.27660107 372.66987466 16.83496094 379.6081543 C17.80297852 381.25878906 17.80297852 381.25878906 18.80297852 384.25878906 C19.46297852 384.25878906 20.12297852 384.25878906 20.80297852 384.25878906 C21.02985352 384.81566406 21.25672852 385.37253906 21.49047852 385.94628906 C23.17183734 388.90868318 25.36842923 390.87648332 27.80297852 393.25878906 C28.62797852 394.09539062 29.45297852 394.93199219 30.30297852 395.79394531 C31.12797852 396.62796875 31.95297852 397.46199219 32.80297852 398.32128906 C33.62797852 399.15789062 34.45297852 399.99449219 35.30297852 400.85644531 C40.01272053 405.41446443 40.01272053 405.41446443 45.80297852 408.25878906 C46.21805664 408.68804688 46.63313477 409.11730469 47.06079102 409.55957031 C73.68745236 435.52952028 122.28678146 435.6326142 156.50024414 435.51953125 C159.99619786 435.50807011 163.49184926 435.5149534 166.98779297 435.52641678 C187.47939219 435.60892597 187.47939219 435.60892597 207.80297852 433.25878906 C209.05771973 433.04649658 210.31246094 432.8342041 211.60522461 432.61547852 C218.97584961 431.31849486 226.12530239 429.41970224 233.30297852 427.32128906 C234.13990234 427.08055664 234.97682617 426.83982422 235.83911133 426.59179688 C239.76704276 425.40442941 243.24609169 424.12372498 246.77172852 422.00488281 C247.77204102 421.42867187 248.77235352 420.85246094 249.80297852 420.25878906 C250.46297852 420.58878906 251.12297852 420.91878906 251.80297852 421.25878906 C219.28589775 455.99294352 172.47260944 465.30781208 126.80297852 467.25878906 C120.05429272 467.46600127 113.30444416 467.50427554 106.55297852 467.50878906 C105.63566956 467.50946381 104.7183606 467.51013855 103.77325439 467.51083374 C53.93127541 467.45298733 3.56962148 457.37857242 -35.19702148 424.25878906 C-36.07745117 423.52402344 -36.95788086 422.78925781 -37.86499023 422.03222656 C-45.38978867 415.51568743 -51.37942559 408.27969877 -57.19702148 400.25878906 C-57.85299316 399.35918457 -57.85299316 399.35918457 -58.5222168 398.44140625 C-78.77458585 370.32403951 -92.36252949 330.17530156 -89.19702148 295.25878906 C-88.54059485 291.41846996 -87.59074916 287.89290141 -86.19702148 284.25878906 C-85.60920898 282.71191406 -85.60920898 282.71191406 -85.00952148 281.13378906 C-79.20387813 271.92483753 -72.13513561 265.52987557 -61.44702148 262.88378906 C-51.85117483 261.33414923 -41.65939629 262.27447769 -33.19702148 267.25878906 C-24.22974736 273.93822492 -19.63724139 281.03667026 -15.05639648 291.02441406 C-14.25153809 292.7767334 -14.25153809 292.7767334 -13.43041992 294.56445312 C-13.02339844 295.45358398 -12.61637695 296.34271484 -12.19702148 297.25878906 C-12.01026284 268.53045203 -11.86912625 239.80220577 -11.78252411 211.07338428 C-11.74124697 197.73449116 -11.6849575 184.39602007 -11.59350586 171.05737305 C-11.51384828 159.43341774 -11.46217464 147.80973529 -11.44431353 136.18551463 C-11.43387026 130.02857899 -11.4092737 123.87242406 -11.35118103 117.7157383 C-11.29696622 111.92321629 -11.28011152 106.13179809 -11.29216003 100.33904648 C-11.28995525 98.2108975 -11.27398941 96.08271243 -11.24337769 93.95478249 C-11.20365798 91.05184997 -11.21310102 88.15310242 -11.23498535 85.25007629 C-11.20003125 83.98207324 -11.20003125 83.98207324 -11.16437101 82.68845397 C-11.21328974 80.29360248 -11.33703479 78.49693971 -12.19702148 76.25878906 C-14.61736106 74.02339028 -17.24323939 72.67335128 -20.19702148 71.25878906 C-21.40397653 70.54647748 -22.60467298 69.82328949 -23.79467773 69.08300781 C-24.65053467 68.55984985 -24.65053467 68.55984985 -25.52368164 68.02612305 C-35.05234127 62.09851946 -42.29288636 55.41649516 -45.78295898 44.41113281 C-47.53310374 35.31368225 -46.67389462 26.12939728 -41.94311523 18.14160156 C-34.93504768 8.02095905 -24.74236847 2.91744883 -12.88960075 0.65973663 C-8.58591994 0.01888257 -4.34417462 -0.01980604 0 0 Z " fill="#000000" transform="translate(518.197021484375,224.7412109375)"/>
<path d="M0 0 C1.25981689 0.13277344 2.51963379 0.26554687 3.81762695 0.40234375 C13.67150072 1.50318007 23.17729579 3.19034213 32.75 5.75 C34.12671875 6.10191406 34.12671875 6.10191406 35.53125 6.4609375 C42.52809607 8.39188528 49.21440074 11.23540418 55.91455078 13.99902344 C57.61282022 14.69387271 59.31976067 15.36742672 61.02734375 16.0390625 C66.89332347 18.37941477 72.25135017 21.04335286 77.59375 24.41796875 C79.60067801 25.6577558 81.62428466 26.73062287 83.75 27.75 C83.75 28.41 83.75 29.07 83.75 29.75 C84.5853125 29.9046875 84.5853125 29.9046875 85.4375 30.0625 C100.42399136 34.51794338 119.40481504 52.32422357 128.359375 64.8515625 C129.86440004 67.00744975 129.86440004 67.00744975 132.5625 69.5625 C134.57818947 71.57818947 135.68469913 73.1351706 136.75 75.75 C137.41 75.75 138.07 75.75 138.75 75.75 C140.4214405 77.93850482 141.89150389 80.22154792 143.38208008 82.53515625 C143.74841553 83.10363281 144.11475098 83.67210937 144.4921875 84.2578125 C144.86698242 84.84336914 145.24177734 85.42892578 145.62792969 86.03222656 C146.65574569 87.60570641 147.7356754 89.14482368 148.8203125 90.6796875 C169.31984184 120.40778725 179.66942513 157.85612169 180.75 193.75 C180.78996094 194.65234375 180.82992188 195.5546875 180.87109375 196.484375 C181.80330769 235.30834394 170.65935958 285.31788796 143.75 314.75 C139.7848058 313.27576113 138.74733063 311.39717848 137 307.625 C136.49210937 306.5525 135.98421875 305.48 135.4609375 304.375 C135.05246582 303.50101563 135.05246582 303.50101563 134.63574219 302.609375 C133.3668456 299.94567147 132.01946755 297.32373928 130.67797852 294.69604492 C125.74440281 284.99246906 121.86839871 275.451593 118.88598633 264.96630859 C117.04220911 258.55142841 114.90834168 252.25236896 112.75 245.9375 C109.98834669 237.80010933 107.59739283 229.68277648 105.61108398 221.32446289 C103.79613195 213.73514331 101.61545448 206.27334234 99.39941406 198.79272461 C97.4870788 192.32135327 95.67515912 185.83270155 93.9375 179.3125 C90.99202305 168.32156399 87.68144777 157.44607032 84.35009766 146.56738281 C83.9182445 145.15691628 83.4864401 143.74643482 83.0546875 142.3359375 C82.84691681 141.65736694 82.63914612 140.97879639 82.42507935 140.27966309 C81.37359041 136.83423868 80.34638906 133.38511043 79.3828125 129.9140625 C70.42406504 97.4921772 70.42406504 97.4921772 54 68.5078125 C52.75 66.75 52.75 66.75 52.75 63.75 C52.09 63.75 51.43 63.75 50.75 63.75 C49.59045122 62.356789 48.49594208 60.90899265 47.4375 59.4375 C43.7403198 54.55139255 40.7175688 52.15708991 34.75 50.75 C35.72534397 56.64056422 36.89663384 60.10329375 40.75 64.75 C46.70868675 76.55942627 47.15331599 89.01694553 47.125 102 C47.12578552 102.77333679 47.12657104 103.54667358 47.12738037 104.34344482 C47.11251493 116.78139099 46.2514457 129.01863819 44.875 141.375 C44.7380925 142.60429733 44.7380925 142.60429733 44.59841919 143.85842896 C44.41369153 145.51217266 44.22886238 147.16590503 44.04393005 148.81962585 C43.95337845 149.63067276 43.86282684 150.44171967 43.76953125 151.27734375 C43.67958389 152.08271072 43.58963654 152.8880777 43.4969635 153.71784973 C40.10533876 184.57996893 40.18536829 215.74234378 39.75 246.75 C37.75 245.75 37.75 245.75 37.00491333 243.91514587 C36.77271088 243.11291092 36.54050842 242.31067596 36.30126953 241.48413086 C36.03404083 240.57485336 35.76681213 239.66557587 35.4914856 238.72874451 C35.20812347 237.73415726 34.92476135 236.73957001 34.6328125 235.71484375 C34.33438446 234.68879532 34.03595642 233.66274689 33.72848511 232.60560608 C33.09443548 230.42002223 32.4641916 228.23333136 31.83740234 226.0456543 C30.89328747 222.7513113 29.93802636 219.4603794 28.98046875 216.16992188 C26.39752098 207.25494688 23.83073141 198.34683676 21.6484375 189.32421875 C19.5345805 180.6458934 16.90496497 172.14940487 14.25 163.625 C13.29998575 160.56054205 12.35266442 157.49525888 11.40625 154.4296875 C11.17707886 153.68977066 10.94790771 152.94985382 10.71179199 152.18751526 C9.28033598 147.54471425 7.9308657 142.88669786 6.625 138.20703125 C5.11241551 132.85599407 3.34935265 127.70849589 1.25 122.5625 C0.63296395 121.01999103 0.01707214 119.47702383 -0.59765625 117.93359375 C-0.88656738 117.21026855 -1.17547852 116.48694336 -1.47314453 115.74169922 C-2.45378111 113.22754674 -3.32268464 110.68100985 -4.1875 108.125 C-6.60612056 101.3756016 -9.97656168 95.08636052 -13.25048828 88.72265625 C-14.16245646 86.92277768 -15.03461345 85.10286822 -15.90234375 83.28125 C-25.49422486 63.20631057 -38.31713905 44.21398628 -53.80810547 28.23876953 C-55.16663266 26.83607755 -56.50775599 25.41658951 -57.84765625 23.99609375 C-62.90135557 18.75017766 -68.15778993 14.42451318 -74.1953125 10.34375 C-74.87335937 9.8178125 -75.55140625 9.291875 -76.25 8.75 C-76.25 8.09 -76.25 7.43 -76.25 6.75 C-64.03516497 3.34643211 -51.82919157 1.29186034 -39.25 -0.25 C-38.16460938 -0.3840625 -37.07921875 -0.518125 -35.9609375 -0.65625 C-23.95758042 -1.93094279 -11.97116006 -1.27873205 0 0 Z " fill="#64554C" transform="translate(996.25,261.25)"/>
<path d="M0 0 C21.0154321 0 21.0154321 0 27.6875 1.1875 C28.46730225 1.31987061 29.24710449 1.45224121 30.05053711 1.58862305 C41.58583489 3.68306339 52.33093787 7.20245465 62 14 C62.83015625 14.55042969 63.6603125 15.10085938 64.515625 15.66796875 C77.33491657 24.88920762 84.72098682 40.52662042 87.6640625 55.76953125 C91.31094641 79.98314421 88.82276278 105.53008156 75.0625 126.30078125 C72.0971394 130.18158461 68.92934081 133.12575996 65 136 C64.26265625 136.58136719 63.5253125 137.16273438 62.765625 137.76171875 C49.33667373 147.87731767 35.37319077 151.12614993 19 152 C19 153.32 19 154.64 19 156 C19.62261719 155.97679687 20.24523437 155.95359375 20.88671875 155.9296875 C59.17226633 155.18213148 102.84910678 164.23653359 131.4296875 191.30078125 C140.49622658 200.88496011 147.88956143 212.44200569 152 225 C152.391875 226.18464844 152.78375 227.36929688 153.1875 228.58984375 C158.93659924 248.37472525 158.63878407 274.5051579 152 294 C151.78037598 294.66080566 151.56075195 295.32161133 151.33447266 296.00244141 C142.47891555 321.89225485 123.01922737 341.06858149 98.9375 353.25 C70.50814725 365.70081142 29.81387246 367.45346812 0 360 C0 241.2 0 122.4 0 0 Z M1 49 C1 64.84 1 80.68 1 97 C6.7732216 89.30237121 6.33782148 81.96356275 6.3125 72.625 C6.32861328 71.44421875 6.34472656 70.2634375 6.36132812 69.046875 C6.3650371 62.38554744 6.18297276 56.01094653 3 50 C2.34 49.67 1.68 49.34 1 49 Z M1 189 C1 234.21 1 279.42 1 326 C27.57578763 323.04713471 45.20970936 317.20021611 62.375 297.125 C74.85654036 280.76898148 75.6560401 261.80922968 74 242 C72.22269311 231.40651042 67.43750542 222.73032059 60 215 C59.46890625 214.38125 58.9378125 213.7625 58.390625 213.125 C44.4450827 197.66063626 20.86590386 191.48323798 1 189 Z " fill="#000000" transform="translate(626,278)"/>
<path d="M0 0 C3.85754273 1.57159148 6.14362932 4.01077487 9 7 C9.51578613 7.48863525 10.03157227 7.97727051 10.56298828 8.48071289 C15.27698108 12.97808747 18.94945583 17.84396372 22.5625 23.25 C23.41763184 24.51614136 23.41763184 24.51614136 24.29003906 25.80786133 C27.63680713 30.81309828 30.78829261 35.84357384 33.54296875 41.203125 C34.70732169 43.4381832 35.91520923 45.6162519 37.17578125 47.796875 C41.16159142 54.69760702 44.82364452 61.48065505 47.74609375 68.9140625 C49.52862775 73.30098417 51.55907982 77.56195888 53.59033203 81.83813477 C58 91.15258692 58 91.15258692 58 96 C58.66 96 59.32 96 60 96 C61.51768525 100.47796094 63.02901495 104.95800246 64.53491211 109.43994141 C65.04626188 110.95905961 65.55923669 112.47763196 66.07397461 113.99560547 C69.83647179 125.0962544 73.00191139 136.10394605 75.34765625 147.6015625 C77.19377948 156.34812682 79.82413812 164.83423669 82.4375 173.375 C83.39927801 176.52722501 84.35685501 179.68066633 85.30859375 182.8359375 C85.65698807 183.99083679 85.65698807 183.99083679 86.01242065 185.16906738 C87.72162555 190.90425958 89.20287391 196.67573938 90.61375427 202.49038696 C91.96757639 208.01560434 93.63565405 213.37887044 95.5 218.75 C96.11607437 220.554623 96.73196138 222.35930998 97.34765625 224.1640625 C97.63656738 225.00485352 97.92547852 225.84564453 98.22314453 226.71191406 C99.17079909 229.50305752 100.05159794 232.31373746 100.9375 235.125 C107.81600354 255.61477963 117.74021003 274.27729843 130 292 C130.72328221 293.12069001 131.44596934 294.24176438 132.16796875 295.36328125 C133.73402685 298.0667416 133.73402685 298.0667416 136 299 C136 299.66 136 300.32 136 301 C138.31 300.67 140.62 300.34 143 300 C142.58402437 298.60396057 142.16715317 297.20818801 141.75 295.8125 C141.47800781 294.89597656 141.20601562 293.97945312 140.92578125 293.03515625 C140.30297771 290.99330667 139.65397832 288.95928346 138.98046875 286.93359375 C134.51973549 273.31749783 133.59899233 259.89075555 133.625 245.6875 C133.6235498 244.85676971 133.62209961 244.02603943 133.62060547 243.1701355 C133.62344734 228.03737352 134.84591863 213.13159904 136.28533936 198.07849121 C138.09706162 178.6822216 138.34204847 159.3990856 138.25 139.9375 C138.24657593 139.21154255 138.24315186 138.4855851 138.23962402 137.73762894 C138.19433887 128.82471054 138.11423474 119.91231689 138 111 C142.86148714 115.86148714 143.71527956 124.65000852 145.1875 131.1875 C147.30347154 140.31875035 149.64109486 149.38358111 152.0625 158.4375 C152.39080811 159.66815186 152.71911621 160.89880371 153.05737305 162.16674805 C154.98201439 169.33525613 156.97843323 176.48008836 159.02905273 183.61352539 C160.5452659 188.90178105 162.02159059 194.20107606 163.5 199.5 C165.36912145 206.19557529 167.2484195 212.88685133 169.1875 219.5625 C170.54013207 224.2680548 171.76699358 228.99644018 172.9375 233.75 C180.33320393 264.55106958 180.33320393 264.55106958 194.76953125 292.4921875 C196.63433055 296.29282608 196.33503154 297.96152959 195 302 C192.29571078 305.4795595 189.18763073 308.46575902 186 311.5 C185.17371094 312.31597656 184.34742188 313.13195312 183.49609375 313.97265625 C169.10849719 328 169.10849719 328 165 328 C165 328.66 165 329.32 165 330 C156.07984539 337.13612369 145.3322296 341.91936811 135.25 347.1875 C133.76693359 347.96770508 133.76693359 347.96770508 132.25390625 348.76367188 C104.71896717 363.15609998 74.74186206 368.27098605 44 368 C45.44411526 355.71337417 46.93086751 343.43408315 48.54077148 331.16796875 C52.22491815 303.09762334 54.2190514 275.44910119 54.1875 247.125 C54.18689575 246.10808075 54.1862915 245.0911615 54.18566895 244.04342651 C54.14175478 216.6005519 52.19908207 189.63008446 48.46289062 162.44824219 C48.07152953 159.53284971 47.71757507 156.61842907 47.390625 153.6953125 C45.29801826 135.8918914 40.72531351 118.46209638 36.50006104 101.06970215 C36.07305174 99.30235376 35.65542684 97.53274242 35.23974609 95.76269531 C27.94107114 64.78125288 15.94646405 33.67573918 1.171875 5.515625 C0 3 0 3 0 0 Z " fill="#5D4F48" transform="translate(931,293)"/>
<path d="M0 0 C12.72711037 25.94081126 21.35038365 51.56974693 27 80 C27.29801514 81.48318726 27.29801514 81.48318726 27.60205078 82.99633789 C28.55730607 87.95146167 29.24426024 92.61893994 29.125 97.6875 C29.10695313 98.70199219 29.08890625 99.71648437 29.0703125 100.76171875 C29.04710937 101.50035156 29.02390625 102.23898437 29 103 C25.93565751 100.12137524 23.29675145 97.16067673 20.75 93.8125 C10.33639096 80.35046267 -2.60912041 67.86803393 -19 62 C-21.72473187 61.80553206 -21.72473187 61.80553206 -24 62 C-21.14959264 64.93948259 -18.22717719 67.70133367 -15.125 70.375 C2.96529764 86.16166423 15.22240927 107.36166005 22.625 130.0625 C23.01107422 131.23844727 23.39714844 132.41439453 23.79492188 133.62597656 C25.9840232 140.44043713 27.99260704 147.25117892 29.5 154.25 C29.64775879 154.92554932 29.79551758 155.60109863 29.94775391 156.29711914 C32.52762683 169.5289088 32.16096204 183.26904086 32.13037109 196.69140625 C32.12495508 199.5234906 32.13037973 202.35542009 32.13671875 205.1875 C32.13605877 207.01041701 32.13477926 208.83333393 32.1328125 210.65625 C32.13483673 211.49176392 32.13686096 212.32727783 32.13894653 213.18811035 C32.12020752 217.89597397 31.78305081 222.35612767 31 227 C29.86800647 226.0919838 28.74467637 225.17316174 27.625 224.25 C26.99851562 223.73953125 26.37203125 223.2290625 25.7265625 222.703125 C24 221 24 221 23.0234375 218.921875 C21.71814083 216.4707072 20.47222677 216.17703444 18 215 C16.62793141 213.64222379 15.30013708 212.23930484 14 210.8125 C-1.09326356 195.42983758 -20.54753466 183.11600808 -40 174 C-41.18207031 173.42507813 -42.36414063 172.85015625 -43.58203125 172.2578125 C-51.88826917 168.24853616 -60.24399678 164.92534661 -69 162 C-69.68674805 161.76716309 -70.37349609 161.53432617 -71.08105469 161.29443359 C-88.44573385 155.43678888 -105.98895453 151.33994496 -124 148 C-123.85950482 146.52031676 -123.71245174 145.04125484 -123.5625 143.5625 C-123.48128906 142.73878906 -123.40007813 141.91507813 -123.31640625 141.06640625 C-123 139 -123 139 -122 138 C-121.68749989 136.7027244 -121.41470262 135.39581782 -121.16015625 134.0859375 C-120.01743524 128.76024786 -118.31102381 123.73348713 -116.4375 118.625 C-116.08961426 117.67471924 -115.74172852 116.72443848 -115.38330078 115.74536133 C-110.91372281 103.79237036 -106.0050997 91.32524043 -98.38671875 80.984375 C-96.83594773 78.835302 -96.83594773 78.835302 -95.15234375 75.69921875 C-93.01753573 71.9130695 -90.5318701 68.49593302 -87.875 65.0625 C-87.43285156 64.47404297 -86.99070312 63.88558594 -86.53515625 63.27929688 C-85.40738866 61.81251757 -84.2089544 60.40061791 -83 59 C-82.34 59 -81.68 59 -81 59 C-80.74959961 58.26281738 -80.49919922 57.52563477 -80.24121094 56.76611328 C-78.8953821 53.76685271 -77.45108264 52.06387133 -75.140625 49.7421875 C-74.36114502 48.95674561 -73.58166504 48.17130371 -72.77856445 47.36206055 C-71.94413818 46.54133057 -71.10971191 45.72060059 -70.25 44.875 C-69.39688232 44.0291333 -68.54376465 43.1832666 -67.66479492 42.31176758 C-60.82219516 35.61659619 -53.721398 29.65096164 -46 24 C-45.39325439 23.52981445 -44.78650879 23.05962891 -44.16137695 22.57519531 C-39.18630665 18.7374781 -34.0145511 15.49045777 -28.5625 12.375 C-27.76779297 11.9109375 -26.97308594 11.446875 -26.15429688 10.96875 C-21.5280759 8.30368535 -16.86915295 5.94806408 -11.95605469 3.85693359 C-10.16131303 3.07067009 -8.42000195 2.16528405 -6.6875 1.25 C-4 0 -4 0 0 0 Z " fill="#433B35" transform="translate(903,275)"/>
<path d="M0 0 C8.51546658 6.93148842 15.57806786 14.00649418 20.125 24.0625 C20.464104 24.79839355 20.80320801 25.53428711 21.15258789 26.29248047 C28.99547284 43.79612512 32.26531214 63.46413313 26 82 C20.86209376 94.03646572 12.65421322 103.2360518 0.91015625 109.03125 C-11.45324553 113.72456245 -26.6994671 112.13396274 -38.7890625 107.4921875 C-43.24980981 105.41918814 -47.13805404 103.03380043 -51 100 C-51.99 99.29875 -52.98 98.5975 -54 97.875 C-60.91584513 91.9031003 -67.66499389 82.54834899 -71 74 C-70.505 73.01 -70.505 73.01 -70 72 C-68.783125 72.061875 -67.56625 72.12375 -66.3125 72.1875 C-62.38027394 72.15966123 -60.00266276 71.73772193 -57 69 C-53.12764802 59.96451204 -54.47871072 49.40171106 -58 40.4609375 C-61.72917655 32.34016489 -66.60681574 26.48010079 -75 23 C-75.33 23.66 -75.66 24.32 -76 25 C-74.51377611 14.03909879 -68.92130953 5.0470061 -60.5 -2.0625 C-41.83207537 -16.15393895 -18.42873281 -13.4275142 0 0 Z " fill="#000000" transform="translate(973,753)"/>
<path d="M0 0 C15.60170426 13.07754564 22.45372973 30.94364626 24.97265625 50.75 C25.09270058 52.14455755 25.19751376 53.54053179 25.28515625 54.9375 C25.33800781 55.61554688 25.39085937 56.29359375 25.4453125 56.9921875 C25.83169948 66.16467837 23.28523463 75.34162326 20.28515625 83.9375 C19.62515625 83.9375 18.96515625 83.9375 18.28515625 83.9375 C18.12015625 84.741875 17.95515625 85.54625 17.78515625 86.375 C13.71253876 96.04746654 5.47957225 101.5119211 -3.71484375 105.9375 C-19.08101121 111.89290617 -34.16111287 108.08762498 -48.71484375 101.9375 C-48.71484375 101.2775 -48.71484375 100.6175 -48.71484375 99.9375 C-49.23046875 99.710625 -49.74609375 99.48375 -50.27734375 99.25 C-60.01934879 94.00430498 -65.66568912 86.01123194 -71.71484375 76.9375 C-71.71484375 75.9475 -71.71484375 74.9575 -71.71484375 73.9375 C-72.37484375 73.9375 -73.03484375 73.9375 -73.71484375 73.9375 C-74.20984375 71.4625 -74.20984375 71.4625 -74.71484375 68.9375 C-74.1115625 68.96070313 -73.50828125 68.98390625 -72.88671875 69.0078125 C-72.0875 69.02585937 -71.28828125 69.04390625 -70.46484375 69.0625 C-69.6759375 69.08570313 -68.88703125 69.10890625 -68.07421875 69.1328125 C-65.44325275 68.9150173 -63.92496023 68.36645462 -61.71484375 66.9375 C-57.63949534 60.24228475 -57.84112591 52.86672481 -59.18359375 45.29296875 C-61.67215785 35.88678897 -66.56458395 27.44543813 -74.71484375 21.9375 C-76.03581996 21.24667145 -77.36655388 20.5733747 -78.71484375 19.9375 C-77.8016456 9.41289128 -72.33529847 2.04816761 -64.71484375 -5 C-44.83208628 -21.16924635 -18.78686012 -14.2726074 0 0 Z " fill="#000000" transform="translate(815.71484375,756.0625)"/>
<path d="M0 0 C12.01664247 8.5758306 16.7639279 23.35687072 19.3125 37.3125 C22.2198098 60.12369994 18.83760795 81.22245268 5 100 C4.34 100 3.68 100 3 100 C2.505 101.485 2.505 101.485 2 103 C-7.66524494 112.06116713 -19.80218332 115.51045939 -32.80151367 115.42382812 C-42.16695862 115.09618698 -50.87272763 112.64696688 -59.23095703 108.41479492 C-60.12573761 107.96303391 -61.02051819 107.51127289 -61.94241333 107.04582214 C-62.96091873 106.52814018 -62.96091873 106.52814018 -64 106 C-64.11675336 92.1008491 -64.20461632 78.20177413 -64.25906086 64.3022337 C-64.28518766 57.84853328 -64.32064294 51.39516159 -64.37719727 44.94165039 C-64.43140559 38.71710275 -64.46139728 32.49287187 -64.47438622 26.26810646 C-64.48364611 23.88973819 -64.50172789 21.51138783 -64.52865028 19.13315392 C-64.56479069 15.80933132 -64.56995146 12.4868283 -64.56762695 9.1628418 C-64.58560333 8.1730986 -64.60357971 7.18335541 -64.62210083 6.16362 C-64.60317624 3.6733933 -64.55528585 1.42739804 -64 -1 C-61.58683777 -3.08024597 -61.58683777 -3.08024597 -59 -4 C-58.35417969 -4.29003906 -57.70835938 -4.58007812 -57.04296875 -4.87890625 C-56.43066406 -5.10449219 -55.81835938 -5.33007812 -55.1875 -5.5625 C-54.28064453 -5.90474609 -54.28064453 -5.90474609 -53.35546875 -6.25390625 C-35.12463983 -12.02851375 -16.34056962 -10.09661213 0 0 Z " fill="#000000" transform="translate(1135,749)"/>
<path d="M0 0 C12.54 0 25.08 0 38 0 C38 1.65 38 3.3 38 5 C37.01 5.66 36.02 6.32 35 7 C34.45452771 11.57157728 35.47811736 14.81579522 37.25 19 C39.0196277 23.38474418 40.53471717 27.68143677 41.75 32.25 C43.51971426 38.66872552 45.70873513 44.8749136 48 51.125 C52.59916603 63.6747841 56.82777215 76.33543157 61.01367188 89.02783203 C61.38855492 90.16235306 61.38855492 90.16235306 61.77101135 91.3197937 C62.24012272 92.74044523 62.70778054 94.16157791 63.1736908 95.58328247 C64.08892865 98.3569697 65.03436075 101.08260508 66.15649414 103.78027344 C67 106 67 106 67 109 C69.35750994 108.10153634 69.35750994 108.10153634 70.19140625 104.921875 C70.65322487 103.53283252 71.10983081 102.14205103 71.5625 100.75 C73.87149877 93.89113087 76.55849722 87.29757019 79.5 80.6875 C86.53708776 64.69719825 92.38097618 47.56326795 92.3125 29.9375 C92.32861328 29.10412109 92.34472656 28.27074219 92.36132812 27.41210938 C92.36574036 21.74239029 91.86305305 16.01557232 89 11 C87.08017888 9.76936024 87.08017888 9.76936024 85 9 C83.83210937 8.47019531 83.83210937 8.47019531 82.640625 7.9296875 C81.45726562 7.40761719 81.45726562 7.40761719 80.25 6.875 C79.45078125 6.52179687 78.6515625 6.16859375 77.828125 5.8046875 C77.22484375 5.53914062 76.6215625 5.27359375 76 5 C76 3.35 76 1.7 76 0 C88.54 0 101.08 0 114 0 C114 1.65 114 3.3 114 5 C112.68 5.66 111.36 6.32 110 7 C110.59062169 12.03584828 111.67196301 16.50873979 113.29296875 21.33984375 C113.52148026 22.02446182 113.74999176 22.7090799 113.98542786 23.41444397 C114.46928923 24.86001613 114.95604848 26.30462123 115.44555664 27.74829102 C116.17423253 29.89835246 116.89358247 32.05134666 117.61132812 34.20507812 C119.98046964 41.27459965 122.45611733 48.28736718 125.11328125 55.25390625 C127.30068663 60.99039003 129.20286044 66.75652956 130.95898438 72.64208984 C133.01362559 79.26956059 135.40800992 85.78227391 137.75 92.3125 C138.26197706 93.7466526 138.77369721 95.18089695 139.28515625 96.61523438 C140.52048969 100.07788125 141.75925289 103.5392887 143 107 C145.16950021 103.74574969 146.69812596 100.38334174 148.25 96.8125 C148.559375 96.10270996 148.86875 95.39291992 149.1875 94.66162109 C151.81436155 88.56412638 154.16975079 82.38593649 156.4609375 76.15625 C158.12868635 71.62484374 159.87235804 67.12413173 161.625 62.625 C161.92390137 61.85357666 162.22280273 61.08215332 162.53076172 60.28735352 C163.99756671 56.51399153 165.52155529 52.78016414 167.125 49.0625 C171.502775 38.11806251 177.01588792 23.43390412 172.88671875 11.88671875 C170.43789015 8.13996029 168.58848635 7.72574896 164.3125 6.625 C163.13300781 6.30789063 161.95351563 5.99078125 160.73828125 5.6640625 C159.83464844 5.44492187 158.93101562 5.22578125 158 5 C158 3.35 158 1.7 158 0 C173.51 0 189.02 0 205 0 C205.33 1.65 205.66 3.3 206 5 C205.39671875 5.30292969 204.7934375 5.60585938 204.171875 5.91796875 C203.37265625 6.33691406 202.5734375 6.75585938 201.75 7.1875 C200.96109375 7.59355469 200.1721875 7.99960937 199.359375 8.41796875 C190.04567261 14.66308376 185.00429202 28.26558345 181.35986328 38.54418945 C179.30908764 44.30540317 176.94541302 49.89597062 174.5 55.5 C171.5498502 62.28510062 168.77245256 69.08739645 166.24047852 76.03857422 C164.3045069 81.30734928 162.14512005 86.46484173 159.9375 91.625 C157.1311521 98.18647744 154.61367072 104.77859842 152.28515625 111.52734375 C150.55159955 116.21163527 148.50636435 120.73478573 146.45825195 125.28808594 C144.42507217 129.86541939 142.78748406 134.42593069 141.5078125 139.27734375 C141 141 141 141 140 142 C137.66702567 142.04092937 135.33294775 142.04241723 133 142 C131.81704967 138.96442001 130.65664731 135.92068907 129.5 132.875 C128.99919922 131.59109375 128.99919922 131.59109375 128.48828125 130.28125 C126.76140606 125.6997444 125.54262301 121.9821422 126 117 C125.34 117 124.68 117 124 117 C123.79246094 116.30519531 123.58492187 115.61039063 123.37109375 114.89453125 C120.37965267 105.01902074 117.11094578 95.24174494 113.82543945 85.4609375 C113.04930969 83.14701027 112.27783979 80.83158886 111.5078125 78.515625 C109.8366588 73.50382343 108.15121736 68.49742094 106.4375 63.5 C106.13392578 62.59507812 105.83035156 61.69015625 105.51757812 60.7578125 C105.07381836 59.47003906 105.07381836 59.47003906 104.62109375 58.15625 C104.3573999 57.38087891 104.09370605 56.60550781 103.82202148 55.80664062 C103.14154245 53.80872729 103.14154245 53.80872729 101 53 C100.57436768 54.08220825 100.57436768 54.08220825 100.14013672 55.1862793 C98.2744211 59.79064173 96.18297571 64.29155337 94.125 68.8125 C93.69058594 69.77220703 93.25617188 70.73191406 92.80859375 71.72070312 C90.93244497 75.84766704 89.04915952 79.94128267 86.9296875 83.94921875 C84.81777205 88.10044429 83.48153818 92.44294866 82.05810547 96.86816406 C80.32971299 101.98395056 78.18805969 106.9141475 76.0625 111.875 C72.75840433 119.67506041 69.62600777 127.45241061 66.9375 135.48828125 C66 138 66 138 64 141 C60.375 141.1875 60.375 141.1875 57 141 C56.68772461 140.0527002 56.37544922 139.10540039 56.05371094 138.12939453 C54.87897604 134.56861133 53.70008398 131.00921546 52.52001953 127.45019531 C52.01272388 125.91833615 51.50651189 124.38611762 51.00146484 122.85351562 C48.45688926 115.13412989 45.87738758 107.48972855 42.7734375 99.97314453 C41.79695857 97.48201361 41.17054081 94.99201462 40.625 92.375 C38.9622133 85.32623031 36.3642452 78.71914142 33.75976562 71.97851562 C30.86840469 64.44908471 28.20071606 56.90353085 26.0625 49.125 C21.87375474 34.20572405 16.81593019 16.67240014 4 7 C1.78412652 5.72147713 1.78412652 5.72147713 0 5 C0 3.35 0 1.7 0 0 Z " fill="#817065" transform="translate(510,735)"/>
<path d="M0 0 C12.25771904 -0.09310742 24.5153525 -0.16397052 36.77335453 -0.20724869 C42.46662544 -0.22803095 48.15965255 -0.25617581 53.8527832 -0.30175781 C59.35766906 -0.34555159 64.86232194 -0.3692073 70.3673687 -0.37950897 C72.45669656 -0.3868406 74.54601319 -0.40115563 76.63524055 -0.42292023 C95.65252002 -0.61296667 113.66581976 1.06859838 128 15 C140.27470393 30.80793428 140.83046801 51.45030468 138.71582031 70.56933594 C137.94735404 75.21927797 136.60060778 79.56238681 135 84 C134.77989258 84.64936523 134.55978516 85.29873047 134.33300781 85.96777344 C128.28558141 103.45217363 115.12910165 117.98509258 99 127 C82.19598988 135.05727528 65.46370281 137.33443021 47.0078125 137.23046875 C45.64159184 137.22927207 44.27537033 137.22882482 42.90914917 137.2290802 C40.08407238 137.22753604 37.25912607 137.21939646 34.43408203 137.20581055 C30.8081328 137.18859322 27.18232272 137.18500378 23.55633736 137.18575573 C20.75290595 137.18548489 17.94950511 137.18002129 15.14608383 137.17275429 C13.15786865 137.16802831 11.16964708 137.16629334 9.181427 137.16459656 C7.98863129 137.15821671 6.79583557 137.15183685 5.56689453 137.14526367 C3.98595505 137.13954597 3.98595505 137.13954597 2.37307739 137.13371277 C0 137 0 137 -1 136 C-1.04063832 134.33382885 -1.042721 132.66611905 -1 131 C-0.24074219 130.82984375 0.51851562 130.6596875 1.30078125 130.484375 C2.29464844 130.24203125 3.28851562 129.9996875 4.3125 129.75 C5.29863281 129.51796875 6.28476563 129.2859375 7.30078125 129.046875 C10.39709425 127.84598949 11.35231822 126.83678546 13 124 C13.92853479 121.21439563 14.12934245 119.53275226 14.14044189 116.65544128 C14.14615204 115.76808792 14.15186218 114.88073456 14.15774536 113.9664917 C14.15886322 112.99552551 14.15998108 112.02455933 14.16113281 111.02416992 C14.16858017 109.48715172 14.16858017 109.48715172 14.17617798 107.91908264 C14.19080547 104.52287122 14.19760264 101.12670652 14.203125 97.73046875 C14.208876 95.37258401 14.21463374 93.01469928 14.22039795 90.65681458 C14.23090963 85.70960268 14.2367512 80.76240704 14.24023438 75.81518555 C14.24571916 69.47649737 14.26974637 63.138024 14.29820633 56.79940319 C14.31683161 51.92750928 14.32203826 47.05566712 14.32357025 42.18374062 C14.32659759 39.84696592 14.33462881 37.51019216 14.34775543 35.17345238 C14.36481307 31.90347333 14.36293611 28.63401918 14.35644531 25.36401367 C14.3656601 24.39912018 14.37487488 23.43422668 14.3843689 22.44009399 C14.35203911 17.23976366 14.03780763 13.43535615 11 9 C7.09980027 6.90544829 3.37080987 5.66224392 -1 5 C-0.67 3.35 -0.34 1.7 0 0 Z M35 13 C34.90456905 14.39143689 34.87811425 15.78768367 34.87974548 17.18238831 C34.87837082 18.08407745 34.87699615 18.9857666 34.87557983 19.91477966 C34.87917511 20.91171341 34.88277039 21.90864716 34.88647461 22.93579102 C34.88632858 23.97956909 34.88618256 25.02334717 34.8860321 26.09875488 C34.88673174 29.56715943 34.89452647 33.03551103 34.90234375 36.50390625 C34.90420775 38.90144318 34.90563174 41.2989805 34.90663147 43.69651794 C34.91045806 50.02095584 34.92028954 56.34537094 34.93133545 62.6697998 C34.94154655 69.11775402 34.94612844 75.56571191 34.95117188 82.01367188 C34.96191168 94.675791 34.97879881 107.33789429 35 120 C36.58844474 120.80736851 38.17842507 121.61171629 39.76904297 122.41479492 C40.65429657 122.86304123 41.53955017 123.31128754 42.45162964 123.77311707 C55.0228958 129.82540528 69.55290675 131.12999167 82.9375 127.3125 C89.888221 124.8719863 97.29890599 121.92746636 102 116 C102 115.34 102 114.68 102 114 C102.66 114 103.32 114 104 114 C117.77125578 95.42552476 121.22879803 73.86520479 118.3125 51.3125 C115.62511258 36.59673715 110.35600101 21.5120925 97.703125 12.46484375 C92.13145194 9.44551225 86.07784304 7.71226777 80 6 C79.04057495 5.72953857 79.04057495 5.72953857 78.06176758 5.45361328 C65.70985821 2.73604696 44.48961986 3.51038014 35 13 Z " fill="#8F7D71" transform="translate(1036,735)"/>
<path d="M0 0 C14.69444066 10.76747807 23.15265828 25.66794662 26.34765625 43.41650391 C29.2377232 63.08340949 22.58913072 82.24911494 11.640625 98.41015625 C8.79972957 101.91002227 5.78482838 105.18242565 2.640625 108.41015625 C1.795 109.31765625 0.949375 110.22515625 0.078125 111.16015625 C-18.22131517 128.05194718 -38.98628566 131.40623757 -63.07714844 130.63232422 C-69.47191738 130.1994739 -74.71282463 128.49151476 -80.359375 125.41015625 C-81.31070313 124.90226563 -82.26203125 124.394375 -83.2421875 123.87109375 C-98.46168613 114.92592882 -109.51483471 102.11252582 -114.703125 85.2265625 C-118.88979342 67.25877722 -117.75246803 45.96518281 -108.0390625 29.9453125 C-107.48476563 29.10871094 -106.93046875 28.27210938 -106.359375 27.41015625 C-105.78445313 26.52199219 -105.20953125 25.63382813 -104.6171875 24.71875 C-92.11151603 6.47915033 -74.64730926 -6.64253678 -52.76733398 -11.21044922 C-33.82038251 -14.19570346 -15.89832558 -10.71294456 0 0 Z M-88.09765625 14.49609375 C-93.09261924 20.93174555 -95.15230669 26.36682601 -96.609375 34.28515625 C-96.78210938 35.13207031 -96.95484375 35.97898437 -97.1328125 36.8515625 C-100.48937141 54.24706223 -95.91796511 70.01406342 -90.359375 86.41015625 C-89.699375 86.41015625 -89.039375 86.41015625 -88.359375 86.41015625 C-88.27300781 86.95800781 -88.18664062 87.50585938 -88.09765625 88.0703125 C-87.12445533 91.15469001 -85.48074515 93.26079099 -83.546875 95.84765625 C-82.51626953 97.23791016 -82.51626953 97.23791016 -81.46484375 98.65625 C-80.77003906 99.56503906 -80.07523438 100.47382812 -79.359375 101.41015625 C-78.69808594 102.2815625 -78.03679688 103.15296875 -77.35546875 104.05078125 C-75.44928899 106.30387826 -73.60436434 107.97895687 -71.234375 109.72265625 C-70.55117188 110.23441406 -69.86796875 110.74617187 -69.1640625 111.2734375 C-67.43280209 112.58780925 -67.43280209 112.58780925 -65.359375 112.41015625 C-65.359375 113.07015625 -65.359375 113.73015625 -65.359375 114.41015625 C-50.517132 120.68220087 -35.67640456 124.30262443 -20.046875 118.28515625 C-11.44978658 114.28997135 -4.15688303 108.72012552 0.640625 100.41015625 C1.30659316 98.26635723 1.30659316 98.26635723 1.640625 96.41015625 C2.300625 96.41015625 2.960625 96.41015625 3.640625 96.41015625 C4.29066125 94.20305642 4.93547245 91.99441733 5.578125 89.78515625 C5.93777344 88.55539062 6.29742188 87.325625 6.66796875 86.05859375 C11.62251337 67.47407698 7.22819638 47.0896042 -1.609375 30.3203125 C-10.35041656 15.78442865 -24.19949466 3.80814094 -40.796875 -0.46484375 C-59.7030595 -4.21926337 -75.27535322 0.16649906 -88.09765625 14.49609375 Z " fill="#8A7B6E" transform="translate(832.359375,743.58984375)"/>
<path d="M0 0 C11.9166115 10.24083801 20.1340438 23.76475975 21.9375 39.5 C23.54014791 62.88629745 18.45927789 81.95371092 3.9375 100.5 C3.43089844 101.18191406 2.92429687 101.86382813 2.40234375 102.56640625 C-7.26702949 114.70657756 -24.69090498 125.01922994 -40.09765625 126.86328125 C-42.03312829 127.03060593 -43.97082668 127.17482429 -45.91015625 127.2890625 C-48.04220704 127.26811816 -48.04220704 127.26811816 -49.0625 128.5 C-51.22730797 128.5989294 -53.39543785 128.629711 -55.5625 128.625 C-56.7484375 128.62757813 -57.934375 128.63015625 -59.15625 128.6328125 C-62.0625 128.5 -62.0625 128.5 -63.0625 127.5 C-65.12343408 127.276707 -67.1863839 127.07197113 -69.25 126.875 C-83.47986041 124.89381009 -95.85864139 116.81796657 -105.25 106.0625 C-107.0625 103.5 -107.0625 103.5 -107.0625 101.5 C-107.7225 101.5 -108.3825 101.5 -109.0625 101.5 C-117.89525534 89.42566696 -120.39439555 77.96892006 -120.5 63.375 C-120.51023193 62.27849121 -120.52046387 61.18198242 -120.53100586 60.05224609 C-120.4211959 49.83761598 -118.00834782 41.08956956 -113.875 31.8125 C-113.34519531 30.61238281 -112.81539062 29.41226563 -112.26953125 28.17578125 C-111.87121094 27.29277344 -111.47289062 26.40976562 -111.0625 25.5 C-110.4025 25.5 -109.7425 25.5 -109.0625 25.5 C-108.959375 24.736875 -108.85625 23.97375 -108.75 23.1875 C-107.98075337 20.180445 -107.25456438 19.5723079 -105.0625 17.5 C-104.05712599 16.31704634 -103.05758861 15.12911861 -102.0625 13.9375 C-75.65964173 -16.10333039 -32.9863038 -25.66536392 0 0 Z M-83.0625 3.5 C-83.7328125 3.98082031 -84.403125 4.46164062 -85.09375 4.95703125 C-93.5852158 11.66855518 -98.95953255 21.65594555 -100.671875 32.28125 C-103.37438095 57.48869488 -98.47783614 78.6932165 -83.10546875 99.09765625 C-77.15461633 106.09531254 -69.47042785 110.97667785 -61.0625 114.5 C-59.99902344 114.97953125 -59.99902344 114.97953125 -58.9140625 115.46875 C-48.83432923 119.2884384 -33.40022874 119.49567756 -23.28515625 115.66015625 C-10.5564823 109.01619112 -1.87768807 98.99032446 2.9375 85.5 C9.07137439 65.84591034 3.1733341 44.56014463 -5.8125 26.8125 C-13.36470024 13.55761795 -24.98664822 4.02979891 -39.0625 -1.5 C-40.0834375 -1.97953125 -40.0834375 -1.97953125 -41.125 -2.46875 C-54.88194857 -8.27246268 -71.36490859 -4.97146997 -83.0625 3.5 Z " fill="#8E7D71" transform="translate(997.0625,746.5)"/>
<path d="M0 0 C0.66 0 1.32 0 2 0 C3.26313837 1.45414954 4.45780319 2.96777252 5.625 4.5 C15.60260155 16.93189904 27.0686937 27.71354719 40 37 C41.08518499 37.82308523 42.16849095 38.64865313 43.25 39.4765625 C52.55448023 46.49154381 62.59006658 51.80672234 73 57 C69.10363289 69.5440223 63.64046616 78.28941965 52 85 C39.13390058 91.21644871 24.32120089 89.29029766 11.1875 84.9375 C-2.00023919 79.88342789 -13.85166338 72.75855445 -25.31640625 64.578125 C-28.53840983 62.28576294 -31.84967578 60.17383769 -35.21850586 58.10449219 C-36.83359721 57.10316654 -38.4188476 56.0541016 -40 55 C-39.35933594 54.50371094 -38.71867188 54.00742187 -38.05859375 53.49609375 C-22.45447172 41.24069538 -12.21557385 26.97760866 -4 9 C-3.54496094 8.00742187 -3.08992187 7.01484375 -2.62109375 5.9921875 C-1.72670726 4.00396946 -0.85879269 2.00384961 0 0 Z " fill="#000000" transform="translate(817,585)"/>
<path d="M0 0 C1.15224028 0.92961422 2.29659176 1.8690125 3.4375 2.8125 C4.07558594 3.33457031 4.71367188 3.85664063 5.37109375 4.39453125 C7 6 7 6 8 9 C8.66 9 9.32 9 10 9 C11.14501953 10.37695312 11.14501953 10.37695312 12.3828125 12.28125 C13.04990234 13.29638672 13.04990234 13.29638672 13.73046875 14.33203125 C14.42076172 15.40517578 14.42076172 15.40517578 15.125 16.5 C15.59292969 17.21542969 16.06085937 17.93085937 16.54296875 18.66796875 C17.70152501 20.44126915 18.85156066 22.2201309 20 24 C19.01 24 18.02 24 17 24 C15.45703125 22.1640625 15.45703125 22.1640625 13.8125 19.625 C10.67943271 14.93206516 7.2990296 10.56896694 3.69921875 6.2265625 C2.15846329 4.20764155 1.03834598 2.3086068 0 0 Z " fill="#605750" transform="translate(870,504)"/>
<path d="M0 0 C4.55430712 2.27715356 4.55430712 2.27715356 6.3125 5.875 C6.65925781 6.55304687 7.00601563 7.23109375 7.36328125 7.9296875 C8 10 8 10 7 14 C4.69 9.38 2.38 4.76 0 0 Z " fill="#4E443D" transform="translate(890,532)"/>
<path d="M0 0 C0.66 0.33 1.32 0.66 2 1 C1.01 4.3 0.02 7.6 -1 11 C-1.99 11 -2.98 11 -4 11 C-3.52269162 9.5410574 -3.04308958 8.08286504 -2.5625 6.625 C-2.29566406 5.81289063 -2.02882813 5.00078125 -1.75390625 4.1640625 C-1 2 -1 2 0 0 Z " fill="#4F453F" transform="translate(905,637)"/>
<path d="M0 0 C0.66 0.33 1.32 0.66 2 1 C2 3.31 2 5.62 2 8 C0.29115995 6.37660195 -1.37446717 4.70680947 -3 3 C-3 2.34 -3 1.68 -3 1 C-2.01 0.67 -1.02 0.34 0 0 Z " fill="#4D423B" transform="translate(930,370)"/>
<path d="M0 0 C2.5654594 2.5654594 2.54046087 4.47686668 3 8 C2.01 8 1.02 8 0 8 C0 5.36 0 2.72 0 0 Z " fill="#534740" transform="translate(1069,404)"/>
</svg>
