<?xml version="1.0" encoding="UTF-8"?>
<svg version="1.1" xmlns="http://www.w3.org/2000/svg" width="32" height="31">
<path d="M0 0 C2.97 0 5.94 0 9 0 C9.66 1.32 10.32 2.64 11 4 C11.7115625 3.01 11.7115625 3.01 12.4375 2 C15.69353109 -0.54129256 17.75816636 -0.65117768 21.8046875 -0.4375 C24 -0 24 -0 27.0625 1.9375 C29.31039067 5.49061751 29.78709135 7.69226604 29.55859375 11.83984375 C28.54185339 15.77171381 26.43106654 16.95455649 23 19 C21.68 19 20.36 19 19 19 C19 15.7 19 12.4 19 9 C18.34 11.97 17.68 14.94 17 18 C3.76555024 20.20574163 3.76555024 20.20574163 -0.5625 17.25 C-2 15 -2 15 -1.75 12.75 C-1.5025 12.1725 -1.255 11.595 -1 11 C-0.01 12.485 -0.01 12.485 1 14 C1.02694851 12.04174127 1.04637218 10.08337774 1.0625 8.125 C1.07410156 7.03445312 1.08570313 5.94390625 1.09765625 4.8203125 C1.19744303 2.04822454 1.19744303 2.04822454 0 0 Z M4 1 C4 2.98 4 4.96 4 7 C4.99 7 5.98 7 7 7 C7 5.35 7 3.7 7 2 C6.01 1.67 5.02 1.34 4 1 Z M23 5 C23 6.65 23 8.3 23 10 C23.33 10 23.66 10 24 10 C24 8.35 24 6.7 24 5 C23.67 5 23.34 5 23 5 Z M4 9 C4 11.64 4 14.28 4 17 C6.44480079 16.81171228 6.44480079 16.81171228 9 16 C10.36020151 14.03241727 10.36020151 14.03241727 11 12 C10.34 11.01 9.68 10.02 9 9 C6.41619823 8.74969023 6.41619823 8.74969023 4 9 Z " fill="#464646" transform="translate(2,2)"/>
<path d="M0 0 C6.33333333 0 12.66666667 0 19 0 C19.91136719 -0.01160156 20.82273437 -0.02320312 21.76171875 -0.03515625 C22.72722656 -0.04417969 23.69273438 -0.05320312 24.6875 -0.0625 C25.66074219 -0.07410156 26.63398438 -0.08570312 27.63671875 -0.09765625 C30 0 30 0 31 1 C31.04063832 2.66617115 31.042721 4.33388095 31 6 C26.60718157 7.561891 23.69620036 8.32480432 19.0625 7.4375 C16.16790582 7.02398655 14.72824586 7.22050118 12 8 C11.34 7.67 10.68 7.34 10 7 C10 6.34 10 5.68 10 5 C9.34 5 8.68 5 8 5 C8 5.99 8 6.98 8 8 C7.34 8 6.68 8 6 8 C6 7.34 6 6.68 6 6 C5.34 6 4.68 6 4 6 C3.67 6.66 3.34 7.32 3 8 C0 2.25 0 2.25 0 0 Z M12 2 C11.67 2.66 11.34 3.32 11 4 C11.33 4.66 11.66 5.32 12 6 C12.99 6 13.98 6 15 6 C14.67 4.68 14.34 3.36 14 2 C13.34 2 12.68 2 12 2 Z M19 2 C19.33 3.32 19.66 4.64 20 6 C20.66 6 21.32 6 22 6 C22 4.68 22 3.36 22 2 C21.01 2 20.02 2 19 2 Z M24 2 C25 6 25 6 25 6 Z M27 2 C27 3.32 27 4.64 27 6 C27.66 6 28.32 6 29 6 C29 4.68 29 3.36 29 2 C28.34 2 27.68 2 27 2 Z " fill="#868888" transform="translate(0,23)"/>
<path d="M0 0 C3.33333333 0 6.66666667 0 10 0 C10 1.32 10 2.64 10 4 C9.34 4 8.68 4 8 4 C8 5.32 8 6.64 8 8 C7.34 8 6.68 8 6 8 C6 7.34 6 6.68 6 6 C5.34 6 4.68 6 4 6 C3.67 6.66 3.34 7.32 3 8 C0 2.25 0 2.25 0 0 Z " fill="#767676" transform="translate(0,23)"/>
<path d="M0 0 C1.99954746 -0.04254356 4.00041636 -0.04080783 6 0 C7 1 7 1 7.0625 3.5625 C7.041875 4.366875 7.02125 5.17125 7 6 C5.02 6.66 3.04 7.32 1 8 C-0.35439668 5.29120665 -0.06501451 2.99066732 0 0 Z M3 2 C3 3.32 3 4.64 3 6 C3.66 6 4.32 6 5 6 C5 4.68 5 3.36 5 2 C4.34 2 3.68 2 3 2 Z " fill="#919191" transform="translate(24,23)"/>
<path d="M0 0 C1.66611905 -0.042721 3.33382885 -0.04063832 5 0 C6 1 6 1 6.125 3.9375 C6 7 6 7 5 9 C3.35 9 1.7 9 0 9 C0.33 8.34 0.66 7.68 1 7 C1.66 7 2.32 7 3 7 C3 5.35 3 3.7 3 2 C2.01 1.67 1.02 1.34 0 1 C0 0.67 0 0.34 0 0 Z " fill="#2F2F2F" transform="translate(6,2)"/>
<path d="M0 0 C2.475 0.495 2.475 0.495 5 1 C4.39816251 3.02045442 3.72693904 5.02111039 3 7 C2.01 7.495 2.01 7.495 1 8 C1.020625 7.05125 1.04125 6.1025 1.0625 5.125 C1.22551826 2.09333717 1.22551826 2.09333717 0 0 Z " fill="#828282" transform="translate(20,23)"/>
</svg>
