<?xml version="1.0" encoding="UTF-8"?>
<svg version="1.1" xmlns="http://www.w3.org/2000/svg" width="753" height="726">
<path d="M0 0 C15.41371849 -0.07054232 30.82742466 -0.12320706 46.2412672 -0.15543652 C53.4005649 -0.17080879 60.55976144 -0.19171008 67.71899414 -0.22631836 C73.9697149 -0.25652004 80.22036232 -0.27564471 86.47115403 -0.28226548 C89.77119365 -0.28612659 93.07097856 -0.29664514 96.37096214 -0.31719017 C135.86669215 -0.5530287 173.95236062 6.18150958 203.3125 34.875 C208.45781298 40.06564977 212.46031192 45.58669417 216 52 C216.45890625 52.78632812 216.9178125 53.57265625 217.390625 54.3828125 C229.61627553 76.69830714 228.04531613 105.54956638 221.25390625 129.33203125 C217.68185257 139.78112286 212.42160699 148.81542407 205 157 C203.95005859 158.17175781 203.95005859 158.17175781 202.87890625 159.3671875 C197.08938905 165.49726454 190.5490871 170.22545645 183 174 C187.84069685 174.98183049 192.68113007 175.95224106 197.54296875 176.82421875 C247.74170254 186.02167239 293.59628231 210.88990269 332 244 C333.28583984 245.08087891 333.28583984 245.08087891 334.59765625 246.18359375 C335.32855469 246.80363281 336.05945313 247.42367187 336.8125 248.0625 C337.43769531 248.58972656 338.06289063 249.11695313 338.70703125 249.66015625 C340 251 340 251 340 253 C340.99 253.33 341.98 253.66 343 254 C345.54655264 256.46549526 347.72502945 259.28457462 350 262 C350.76828125 262.87011719 351.5365625 263.74023438 352.328125 264.63671875 C363.12993911 277.08597935 371.05031192 291.10954493 378 306 C378.47179687 306.99128906 378.94359375 307.98257812 379.4296875 309.00390625 C382.10326379 314.97378622 383.98560489 321.07328674 385.6875 327.375 C385.99143677 328.48838745 385.99143677 328.48838745 386.30151367 329.62426758 C389.33258338 341.40333073 390.39023922 353.23896303 390.375 365.375 C390.37411377 366.66559326 390.37322754 367.95618652 390.37231445 369.28588867 C390.18727177 384.55237986 388.23341806 399.60975439 383 414 C349.99223479 409.25675815 311.3373667 374.57510636 292 349 C292 348.34 292 347.68 292 347 C291.34 347 290.68 347 290 347 C289.87625 347.71414063 289.7525 348.42828125 289.625 349.1640625 C284.7063036 371.48264739 266.0437368 394.23414479 247.43359375 406.45703125 C246.63050781 406.96621094 245.82742188 407.47539062 245 408 C244.26910156 408.49886719 243.53820312 408.99773437 242.78515625 409.51171875 C216.58267623 426.57692369 181.67992728 429.08395399 151.32421875 429.203125 C150.15655472 429.20882507 148.98889069 429.21452515 147.7858429 429.22039795 C145.32785934 429.22977749 142.86986362 429.23635358 140.41186523 429.24023438 C136.73462748 429.24987643 133.0579651 429.28094321 129.38085938 429.3125 C83.41880076 429.51857498 36.93541673 419.68862043 2.87890625 386.91015625 C-24.16195735 360.01590526 -38.28356685 321.04140911 -39.3125 283.1875 C-39.34988281 282.27355469 -39.38726562 281.35960937 -39.42578125 280.41796875 C-39 278 -39 278 -37.16796875 276.17578125 C-35 275 -35 275 -32 275 C-31.69932617 275.97102661 -31.69932617 275.97102661 -31.39257812 276.96166992 C-21.46788439 308.86528435 -10.70616115 340.03962464 11 366 C12.1446875 367.5159375 12.1446875 367.5159375 13.3125 369.0625 C21.36477234 377.86382093 31.52353251 384.81027679 42.17504883 390.1003418 C42.89227615 390.45710495 43.60950348 390.8138681 44.34846497 391.18144226 C44.89347153 391.45156631 45.43847809 391.72169037 46 392 C46.04580856 348.28734937 46.08103501 304.57470128 46.10213066 260.86203136 C46.10463198 255.69773441 46.10722063 250.53343751 46.10986328 245.36914062 C46.11065021 243.827006 46.11065021 243.827006 46.11145304 242.25371714 C46.12014833 225.62156186 46.13591348 208.98942045 46.15430559 192.35727338 C46.17302902 175.28271928 46.18412189 158.20817241 46.18817699 141.13360846 C46.19091698 130.60335636 46.19956145 120.07314347 46.21583293 109.54290344 C46.22642998 102.31541174 46.22959448 95.08794021 46.22700275 87.86044131 C46.22572569 83.69473193 46.22764071 79.52909091 46.23841095 75.36339378 C46.24822112 71.54088498 46.24858514 67.71848983 46.24179779 63.89597555 C46.24056703 61.87626435 46.24912289 59.85655427 46.25816262 57.83686292 C46.20611535 41.76499898 44.67162744 28.17009119 33.38671875 16.046875 C24.53070772 8.45186717 15.2140012 6.9268631 4.01953125 6.28125 C1 6 1 6 0 5 C-0.04063832 3.33382885 -0.042721 1.66611905 0 0 Z M86 19 C86 146.05 86 273.1 86 404 C128.97987057 409.37248382 176.79841076 411.05073251 213.0625 383.3125 C224.01453817 374.07171779 232.89922304 364.46965711 240 352 C240.55171875 351.071875 241.1034375 350.14375 241.671875 349.1875 C250.19549743 333.72195827 253.19202367 316.05219386 253.24023438 298.62402344 C253.24984927 296.532784 253.28089292 294.44256843 253.3125 292.3515625 C253.52125098 266.08499117 243.70526671 241.58352176 225.625 222.4921875 C195.15681554 193.72781598 148.5367601 185.19804562 108.03515625 185.9296875 C107.36355469 185.95289063 106.69195312 185.97609375 106 186 C106 184.35 106 182.7 106 181 C106.8971875 180.98582031 107.794375 180.97164062 108.71875 180.95703125 C131.02938903 180.10424856 150.03389686 170.72120066 165.34765625 154.515625 C173.45675492 144.45346788 178.52646335 129.80676708 180 117 C180.10828125 116.06285156 180.2165625 115.12570313 180.328125 114.16015625 C182.57679417 91.17047276 181.07744672 64.74493377 166 46 C152.77552692 30.40632164 135.7257098 23.25259506 115.75 20.1875 C114.96616943 20.06334717 114.18233887 19.93919434 113.37475586 19.8112793 C104.14684526 18.56674671 95.52372323 19 86 19 Z " fill="#343534" transform="translate(53,49)"/>
<path d="M0 0 C0.66760345 0.06396973 1.33520691 0.12793945 2.02304077 0.19384766 C12.95296109 1.26384834 23.42769075 3.11957421 33.95458984 6.25878906 C35.49930471 6.71915875 37.05520101 7.1418071 38.61328125 7.5546875 C50.79955599 10.87263121 62.58735808 16.09988828 74 21.4375 C74.77722412 21.79730957 75.55444824 22.15711914 76.35522461 22.52783203 C80.56264954 24.53545434 84.27223808 26.753852 87.99975586 29.54614258 C89.9995946 30.94320164 92.05849377 32.07562879 94.2109375 33.22265625 C98.97648733 35.81315509 103.18489553 38.89539351 107.4375 42.25 C108.5987439 43.16144775 108.5987439 43.16144775 109.78344727 44.09130859 C121.64478801 53.52743203 133.26816697 63.98625783 142.8125 75.8125 C142.8125 76.4725 142.8125 77.1325 142.8125 77.8125 C143.4725 77.8125 144.1325 77.8125 144.8125 77.8125 C147.01247307 80.17185977 148.81153904 82.87957559 150.6875 85.5 C151.26395264 86.304375 151.84040527 87.10875 152.43432617 87.9375 C177.52384891 123.61428756 190.61652019 164.37515815 192.8125 207.8125 C192.87308594 208.98296875 192.93367188 210.1534375 192.99609375 211.359375 C194.00155075 256.07263913 179.78717793 301.46246188 153.8125 337.8125 C148.54096007 334.33193197 146.62291508 329.3100094 143.8125 323.8125 C143.20277344 322.68972656 142.59304688 321.56695312 141.96484375 320.41015625 C126.81523885 292.05281221 118.83932197 259.16104534 110.29840088 228.31918335 C109.15266202 224.18250742 107.99698027 220.04864656 106.83935547 215.9152832 C106.64279169 215.21335374 106.44622791 214.51142427 106.24370766 213.78822422 C105.84576411 212.36726798 105.44779007 210.94632027 105.04978561 209.52538109 C104.45469039 207.4001217 103.86014026 205.27471058 103.26577759 203.14924622 C86.30109295 129.75996856 86.30109295 129.75996856 51.0625 64.484375 C49.8125 62.8125 49.8125 62.8125 49.8125 60.8125 C49.1525 60.8125 48.4925 60.8125 47.8125 60.8125 C47.420625 60.379375 47.02875 59.94625 46.625 59.5 C43.9999619 57.05599901 41.13961134 56.1307894 37.8125 54.8125 C38.07143983 60.76811618 40.17882766 64.4087302 43.3203125 69.4140625 C51.11010127 81.93482246 50.43426304 97.52948996 50.8125 111.8125 C50.86494873 113.04987915 50.86494873 113.04987915 50.91845703 114.31225586 C51.16355017 124.2911778 49.85560228 134.17444759 48.78942871 144.0786438 C44.45482811 184.67887651 43.33119323 224.99495989 42.8125 265.8125 C40.8125 264.8125 40.8125 264.8125 40.07324219 263.12158203 C39.83766602 262.36216309 39.60208984 261.60274414 39.359375 260.8203125 C39.07715088 259.91385986 38.79492676 259.00740723 38.50415039 258.07348633 C38.19340576 257.03861084 37.88266113 256.00373535 37.5625 254.9375 C37.22532959 253.82979248 36.88815918 252.72208496 36.54077148 251.58081055 C32.76965853 238.9899344 29.33831365 226.30317504 25.875 213.625 C25.56964325 212.50743317 25.2642865 211.38986633 24.94967651 210.23843384 C24.6445816 209.12181366 24.33948669 208.00519348 24.02514648 206.85473633 C14.0516236 170.35347977 4.03797678 134.12016363 -12.1875 99.8125 C-12.55472168 99.03503418 -12.92194336 98.25756836 -13.30029297 97.45654297 C-15.49583711 92.8540472 -17.79448696 88.31525212 -20.1875 83.8125 C-20.52958496 83.16555176 -20.87166992 82.51860352 -21.22412109 81.85205078 C-26.83450037 71.33098777 -33.19465048 61.46545366 -40.1875 51.8125 C-40.81591797 50.94431641 -40.81591797 50.94431641 -41.45703125 50.05859375 C-50.68048106 37.43857195 -60.84991294 26.45366473 -73.1875 16.8125 C-74.54892388 15.65431026 -75.90413884 14.48873816 -77.25 13.3125 C-79.89629388 10.858468 -79.89629388 10.858468 -82.1875 9.8125 C-82.1875 9.1525 -82.1875 8.4925 -82.1875 7.8125 C-70.02622848 3.409281 -57.5863572 1.38861128 -44.75 0.125 C-43.55568359 -0.00455078 -42.36136719 -0.13410156 -41.13085938 -0.26757812 C-27.32197517 -1.67300576 -13.80050715 -1.34068553 0 0 Z " fill="#5E5E5D" transform="translate(535.1875,49.1875)"/>
<path d="M0 0 C19.19830065 10.47180035 31.52631029 34.5547567 41.51269531 53.22460938 C42.67255191 55.38896423 43.84592401 57.54417416 45.02636719 59.69726562 C50.28776813 69.37060307 54.90025557 79.19950847 59.13037109 89.36425781 C60.12087451 91.74010449 61.12789526 94.10844604 62.13671875 96.4765625 C69.35237762 113.57137775 74.9855608 130.96664452 79.37084961 148.987854 C99.37932087 233.20248187 99.37932087 233.20248187 137.875 309.9375 C138.51767822 310.89188965 139.16035645 311.8462793 139.82250977 312.82958984 C140.43537842 313.71984863 141.04824707 314.61010742 141.6796875 315.52734375 C142.22351074 316.31874756 142.76733398 317.11015137 143.32763672 317.92553711 C145.0590704 320.07327316 146.66592909 321.53591152 149 323 C151.66761764 323.25124826 151.66761764 323.25124826 154 323 C152.56879487 317.03001936 150.85237189 311.24257466 148.85546875 305.43945312 C144.45082102 291.94177496 144.64114729 278.09454866 144.6875 264.0625 C144.68799347 263.03709106 144.68848694 262.01168213 144.68899536 260.9552002 C144.71421833 243.71605401 145.63485953 226.67275289 147.24609375 209.515625 C148.76934169 193.18347274 149.1630757 176.90934272 149.13037109 160.51049805 C149.12498871 157.30577913 149.13036552 154.10119921 149.13671875 150.89648438 C149.13999682 139.55598595 148.9162259 128.30672845 148 117 C155.08500937 127.62751406 157.23234372 142.96653443 160.41668701 155.17947388 C161.84859188 160.67043521 163.29682735 166.15709956 164.7421875 171.64453125 C165.02699982 172.72776169 165.31181213 173.81099213 165.60525513 174.92704773 C168.14136399 184.56476871 170.75467601 194.17928174 173.40087891 203.78735352 C175.53160907 211.54159922 177.61610065 219.30701035 179.66842651 227.08241272 C180.98628168 232.07515897 182.30966167 237.06643722 183.63262939 242.05783081 C184.28357743 244.52071567 184.93174518 246.9843374 185.57684326 249.44876099 C191.07807776 270.45964531 197.09298242 290.27141703 207.1640625 309.5625 C207.67710937 310.58085937 208.19015625 311.59921875 208.71875 312.6484375 C209.18216797 313.53708496 209.64558594 314.42573242 210.12304688 315.34130859 C211.21209442 318.64301455 210.88588371 320.66643111 210 324 C207.49514148 327.75728778 204.53495537 330.24101044 201 333 C198.80134256 335.14079804 196.64946717 337.31664665 194.53540039 339.54101562 C189.97125706 344.25256632 185.06607014 348.26919717 179.8125 352.1875 C178.51179565 353.15816406 178.51179565 353.15816406 177.18481445 354.1484375 C163.6953219 364.05183851 149.4055487 372.45768729 134 379 C133.07477539 379.39759521 133.07477539 379.39759521 132.13085938 379.80322266 C124.29728317 383.14923268 116.4155762 385.91334138 108.1796875 388.1328125 C105.51566263 388.85936474 102.92836834 389.68450959 100.3125 390.5625 C83.54859536 395.60821472 65.3566026 396.21560997 48 396 C48.99192031 387.84780553 50.02269265 379.7042326 51.18359375 371.57421875 C53.41709386 355.84827584 55.42304428 340.14351238 56.75 324.3125 C56.80880341 323.6163559 56.86760681 322.92021179 56.92819214 322.20297241 C57.32257002 317.47107068 57.67360199 312.73704447 58 308 C58.0483902 307.31710907 58.0967804 306.63421814 58.14663696 305.93063354 C59.06947948 292.60289977 59.20228823 279.29367489 59.1875 265.9375 C59.18609512 264.28902069 59.18609512 264.28902069 59.18466187 262.60723877 C59.07178456 201.19642499 50.85827848 139.57691294 32 81 C31.79955078 80.37673828 31.59910156 79.75347656 31.39257812 79.11132812 C23.45266338 54.50006592 13.97294149 30.75311084 2.58935547 7.50463867 C0 2.19555035 0 2.19555035 0 0 Z " fill="#585858" transform="translate(464,82)"/>
<path d="M0 0 C17.07859158 33.05299862 33.28636512 74.052229 32 112 C29.05917646 109.20783347 26.73557693 106.33543779 24.4375 103 C14.49364525 89.22170679 -2.54484671 70.04705956 -20.19677734 66.56689453 C-22.12494369 66.32232386 -24.06251429 66.15423823 -26 66 C-22.83084602 69.27479244 -19.52673606 72.34143965 -16.125 75.375 C16.53905705 104.75817687 32.00055433 147.86336931 35 191 C35.26658619 197.55210938 35.24861855 204.1060573 35.20581055 210.66235352 C35.18732167 213.59074477 35.18530339 216.51882147 35.18554688 219.44726562 C35.18063736 221.34114853 35.17481153 223.23502934 35.16796875 225.12890625 C35.16685593 225.98843399 35.1657431 226.84796173 35.16459656 227.73353577 C35.121991 233.22386833 34.68681234 238.5517455 34 244 C32 244 32 244 30.484375 242.49609375 C29.91203125 241.81675781 29.3396875 241.13742187 28.75 240.4375 C28.12480469 239.7053125 27.49960937 238.973125 26.85546875 238.21875 C25.7271481 236.86951604 24.60346077 235.51636559 23.48828125 234.15625 C19.70336477 229.59361096 15.53844154 225.80371914 11 222 C10.10152344 221.22527344 9.20304688 220.45054687 8.27734375 219.65234375 C-8.73027667 205.15441172 -29.32193352 190.70901945 -50.5 182.94140625 C-53.43712082 181.83539669 -56.26373047 180.5396347 -59.125 179.25 C-82.48304956 169.26102848 -107.11596618 163.68115488 -132 159 C-136.92116504 144.23650489 -121.09774038 116.20629397 -114.6015625 103.03125 C-112.51842303 98.95176854 -110.30744244 94.9564196 -108 91 C-107.44054687 90.03707031 -106.88109375 89.07414062 -106.3046875 88.08203125 C-93.09003586 66.47256468 -75.87069245 46.64345842 -56 31 C-55.04867187 30.22011719 -54.09734375 29.44023438 -53.1171875 28.63671875 C-40.66031368 18.64891839 -26.87964378 10.64471207 -12.5 3.75 C-11.70513184 3.36706787 -10.91026367 2.98413574 -10.09130859 2.58959961 C-9.34961426 2.24550049 -8.60791992 1.90140137 -7.84375 1.546875 C-6.87211914 1.09586426 -6.87211914 1.09586426 -5.88085938 0.63574219 C-4 0 -4 0 0 0 Z " fill="#404242" transform="translate(435,64)"/>
<path d="M0 0 C13.2 0 26.4 0 40 0 C40 1.65 40 3.3 40 5 C39.01 5.66 38.02 6.32 37 7 C36.37679558 11.89989399 37.76624217 16.02993538 39.39453125 20.5859375 C39.65386948 21.33595535 39.9132077 22.08597321 40.18040466 22.85871887 C41.04955062 25.36708558 41.93122914 27.8708702 42.8125 30.375 C43.75355051 33.0825161 44.69120063 35.79119707 45.62893677 38.49986267 C46.30596146 40.45439516 46.9841157 42.4085367 47.66329956 44.36231995 C51.83000444 56.35602918 55.89806565 68.3832269 59.9703064 80.40924072 C61.2379592 84.15194987 62.50704458 87.89417016 63.77661133 91.63623047 C64.56463839 93.95930226 65.35264395 96.28238135 66.140625 98.60546875 C66.50151718 99.6694136 66.86240936 100.73335846 67.23423767 101.82954407 C68.83419086 106.54930151 70.43116766 111.26977867 72 116 C75.77137181 107.94843666 79.14979298 99.7840082 82.375 91.5 C83.09236328 89.6588562 83.09236328 89.6588562 83.82421875 87.78051758 C84.78001978 85.32307874 85.73203063 82.86425496 86.68261719 80.40478516 C87.49654698 78.30117787 88.31415078 76.19898293 89.13769531 74.09912109 C94.67154327 59.98017409 98.19512589 46.86918972 98.4375 31.625 C98.47121704 30.25154419 98.47121704 30.25154419 98.50561523 28.8503418 C98.47951535 21.48682866 96.89405276 15.14211442 91.8125 9.625 C88.05017026 7.45120949 84.16298466 6.1971982 80 5 C80 3.35 80 1.7 80 0 C93.53 0 107.06 0 121 0 C121 1.65 121 3.3 121 5 C119.68 5.33 118.36 5.66 117 6 C117.45470631 12.01457624 118.50509744 17.30170992 120.58984375 22.953125 C120.97966682 24.04723694 120.97966682 24.04723694 121.37736511 25.16345215 C121.93357777 26.72098351 122.49419526 28.27694792 123.05889893 29.8314209 C123.95480259 32.2976299 124.8390132 34.76776024 125.72021484 37.23925781 C126.91504825 40.58912381 128.11357868 43.93762665 129.31494141 47.28515625 C135.21025625 63.74368901 140.80428357 80.31234427 146.371521 96.88439941 C146.87028184 98.36755134 147.37046504 99.85022577 147.87213135 101.33239746 C148.56767922 103.38939479 149.2573005 105.44828438 149.9453125 107.5078125 C150.34250488 108.69004395 150.73969727 109.87227539 151.14892578 111.09033203 C152 114 152 114 152 117 C152.66 117 153.32 117 154 117 C154.1227832 116.11924805 154.24556641 115.23849609 154.37207031 114.33105469 C154.9642514 111.18963991 155.80791487 108.63829329 157.046875 105.703125 C157.68665283 104.16640137 157.68665283 104.16640137 158.33935547 102.59863281 C158.80486816 101.49358398 159.27038086 100.38853516 159.75 99.25 C160.75047974 96.83454173 161.74868696 94.41832093 162.7421875 92 C163.00367584 91.3638678 163.26516418 90.7277356 163.53457642 90.07232666 C166.46841127 82.90407841 169.26402478 75.68341235 172.03283691 68.45007324 C172.58512969 67.0072594 173.13871471 65.5649394 173.69372559 64.12316895 C184.65984591 39.26824743 184.65984591 39.26824743 184.875 13.1875 C182.62053864 9.35491569 181.1664727 8.44224055 177 7 C174.66905466 6.6503582 172.33595238 6.31445513 170 6 C169.01 5.01 169.01 5.01 168 4 C168.33 2.68 168.66 1.36 169 0 C185.83 0 202.66 0 220 0 C220 1.65 220 3.3 220 5 C219.40832031 5.29132812 218.81664062 5.58265625 218.20703125 5.8828125 C206.46840905 11.97234245 202.00254521 22.21418073 196.8671875 33.98046875 C196.4179895 35.00951073 196.4179895 35.00951073 195.9597168 36.05934143 C192.20475039 44.74162278 188.72668302 53.53556812 185.23574829 62.32644653 C183.07364871 67.76963222 180.90135665 73.20875228 178.73046875 78.6484375 C178.27415573 79.79242508 177.81784271 80.93641266 177.34770203 82.11506653 C172.21056398 94.98917982 167.04431738 107.85153148 161.86450195 120.70852661 C160.82966477 123.2773994 159.79619346 125.84681509 158.76391602 128.41671753 C157.32075392 132.00944394 155.87350068 135.60051364 154.42578125 139.19140625 C153.9913118 140.27438995 153.55684235 141.35737366 153.10920715 142.47317505 C152.71263412 143.45470551 152.3160611 144.43623596 151.9074707 145.44750977 C151.56142288 146.30707779 151.21537506 147.16664581 150.85884094 148.05226135 C150 150 150 150 149 151 C146.66702567 151.04092937 144.33294775 151.04241723 142 151 C141.81002441 150.44989258 141.62004883 149.89978516 141.42431641 149.33300781 C137.82851506 138.931859 134.20509124 128.54283602 130.46826172 118.19140625 C125.986906 105.76215511 121.6879423 93.28064722 117.5 80.75 C117.23852173 79.97065094 116.97704346 79.19130188 116.7076416 78.38833618 C115.95781722 76.1506734 115.21249789 73.91156388 114.46875 71.671875 C114.24834045 71.01460922 114.02793091 70.35734344 113.80084229 69.68016052 C112.30895209 65.15992951 111.11094061 60.62464305 110 56 C109.34 56 108.68 56 108 56 C107.7225293 56.88220215 107.44505859 57.7644043 107.15917969 58.67333984 C106.10860729 61.68831446 104.9038922 64.38858453 103.453125 67.2265625 C95.05939816 83.96610526 88.10828948 101.0180939 81.47099304 118.51646423 C78.78138637 125.60252168 76.0019419 132.65010257 73.1875 139.6875 C72.56548706 141.25491943 72.56548706 141.25491943 71.9309082 142.85400391 C71.55538818 143.7929248 71.17986816 144.7318457 70.79296875 145.69921875 C70.4683667 146.51221436 70.14376465 147.32520996 69.80932617 148.1628418 C69 150 69 150 68 151 C65.66702567 151.04092937 63.33294775 151.04241723 61 151 C45.74440609 107.42424322 45.74440609 107.42424322 38.875 86.6875 C38.40060307 85.25858278 37.92607464 83.82970922 37.45141602 82.40087891 C37.21460617 81.68790649 36.97779633 80.97493408 36.73381042 80.24035645 C36.49552017 79.52295288 36.25722992 78.80554932 36.01171875 78.06640625 C35.77322708 77.34835815 35.53473541 76.63031006 35.28901672 75.89050293 C34.79103681 74.39127245 34.29298291 72.89206655 33.79486084 71.3928833 C33.2424978 69.73002583 32.69048017 68.06705359 32.13873291 66.4039917 C30.30357482 60.87556703 28.45669143 55.35125944 26.59649658 49.83120728 C26.00171832 48.06047096 25.4105474 46.28851785 24.82342529 44.51522827 C18.01751408 21.80605727 18.01751408 21.80605727 1.76171875 5.828125 C1.18035156 5.55484375 0.59898438 5.2815625 0 5 C0 3.35 0 1.7 0 0 Z " fill="#7B7B7B" transform="translate(15,557)"/>
<path d="M0 0 C1.22009766 -0.00262848 1.22009766 -0.00262848 2.46484375 -0.00531006 C5.16912948 -0.0097294 7.87335026 -0.00678649 10.57763672 -0.00341797 C12.46458956 -0.0040919 14.35154232 -0.00506267 16.23849487 -0.00631714 C20.20815857 -0.00779496 24.17779984 -0.00564022 28.14746094 -0.00097656 C33.19260045 0.00466632 38.23768612 0.00147725 43.28282356 -0.00454903 C47.19005726 -0.00819925 51.09727867 -0.00699487 55.00451279 -0.00442123 C56.86131675 -0.00376137 58.71812188 -0.00454686 60.57492447 -0.00690079 C109.15329708 -0.05488764 109.15329708 -0.05488764 126.09716797 15.90283203 C139.92575297 31.03199412 139.81600983 50.41889389 139.30273438 69.69580078 C138.47699434 86.33363447 132.07665197 102.49513382 121.13232422 115.12939453 C120.52388672 115.89123047 119.91544922 116.65306641 119.28857422 117.43798828 C109.48666734 129.16004483 97.39227256 136.92451339 83.13232422 142.12939453 C82.36919922 142.44392578 81.60607422 142.75845703 80.81982422 143.08251953 C68.64344338 147.78703031 54.57072469 147.42129956 41.69482422 147.32470703 C40.19311718 147.32096238 38.69140765 147.31812231 37.18969727 147.31613159 C33.29688392 147.30860916 29.40422734 147.28906339 25.51147461 147.26672363 C21.51532103 147.24601499 17.51914134 147.23707721 13.52294922 147.22705078 C5.72600387 147.20580279 -2.07081373 147.1718106 -9.86767578 147.12939453 C-9.86767578 145.14939453 -9.86767578 143.16939453 -9.86767578 141.12939453 C-9.12001953 140.97083984 -8.37236328 140.81228516 -7.60205078 140.64892578 C-1.36247465 139.2466927 -1.36247465 139.2466927 3.75732422 135.62939453 C5.68873997 132.11772952 6.25799149 129.46945652 6.26603699 125.52581787 C6.27030197 124.58101059 6.27456696 123.63620331 6.27896118 122.6627655 C6.2782814 121.11049004 6.2782814 121.11049004 6.27758789 119.52685547 C6.2809465 118.43550797 6.28430511 117.34416046 6.2877655 116.21974182 C6.29728744 112.6010729 6.29921938 108.98245021 6.30029297 105.36376953 C6.30350518 102.85133851 6.30686923 100.33890768 6.31037903 97.82647705 C6.31637376 92.55391133 6.31826139 87.28135737 6.31762695 82.00878906 C6.31702698 75.92458183 6.32756286 69.8404635 6.34337062 63.75627875 C6.35805326 57.89527516 6.36161413 52.03430657 6.36101723 46.17328644 C6.362197 43.68383675 6.3666186 41.19438639 6.37434959 38.70494843 C6.3841576 35.21972817 6.38126783 31.73473572 6.37524414 28.24951172 C6.38086365 27.22275833 6.38648315 26.19600494 6.39227295 25.13813782 C6.36873467 19.77285151 6.13218714 15.14460359 4.13232422 10.12939453 C0.02817002 8.02959471 -4.33330028 7.7517598 -8.86767578 7.12939453 C-9.86767578 6.12939453 -9.86767578 6.12939453 -9.93017578 3.56689453 C-9.90955078 2.76251953 -9.88892578 1.95814453 -9.86767578 1.12939453 C-6.74550802 -0.43168935 -3.42679816 -0.00898718 0 0 Z M28.13232422 15.12939453 C27.23269108 18.75607018 27.37488815 22.32956188 27.45117188 26.04833984 C27.45029572 27.16083099 27.44941956 28.27332214 27.44851685 29.41952515 C27.45269961 33.09956892 27.49938896 36.77779389 27.54638672 40.45751953 C27.55757628 43.00770064 27.56611759 45.55789465 27.57211304 48.10809326 C27.59268709 54.13612265 27.63998071 60.16337038 27.70020998 66.19108653 C27.76729761 73.05431773 27.80026954 79.91758032 27.83038259 86.78105783 C27.89308169 100.89753186 27.99860227 115.01342742 28.13232422 129.12939453 C30.50801157 130.25989273 32.88584491 131.3854342 35.26513672 132.50830078 C35.93134033 132.82593384 36.59754395 133.14356689 37.28393555 133.4708252 C51.94074887 140.36841309 67.51801219 141.41533929 82.96435547 136.40283203 C89.5334775 133.76222318 95.38780045 130.453566 100.13232422 125.12939453 C100.13232422 124.46939453 100.13232422 123.80939453 100.13232422 123.12939453 C100.79232422 123.12939453 101.45232422 123.12939453 102.13232422 123.12939453 C117.3064656 103.51331392 120.33131477 80.02347287 117.44482422 55.94189453 C114.82039539 40.51888129 110.10725015 26.43621318 97.69482422 16.06689453 C93.17742685 12.88185346 88.3753106 10.82093907 83.13232422 9.12939453 C82.16810547 8.77232422 81.20388672 8.41525391 80.21044922 8.04736328 C74.30901655 6.39976729 68.0815825 6.76058013 62.00732422 6.75439453 C60.76466797 6.72990234 59.52201172 6.70541016 58.24169922 6.68017578 C47.85705489 6.64765602 36.12687383 7.85229575 28.13232422 15.12939453 Z " fill="#8A8A8A" transform="translate(586.86767578125,555.87060546875)"/>
<path d="M0 0 C13.33665682 10.17994113 24.48497104 25.9955417 26.82373047 42.85058594 C29.3588366 68.20164728 23.70440632 89.83000006 8.0390625 110.00390625 C7.55179688 110.64328125 7.06453125 111.28265625 6.5625 111.94140625 C5.44987051 113.34683298 4.25345904 114.68541858 3.0390625 116.00390625 C2.3790625 116.00390625 1.7190625 116.00390625 1.0390625 116.00390625 C0.7090625 116.99390625 0.3790625 117.98390625 0.0390625 119.00390625 C-2.03219558 120.72059804 -4.07453949 122.28032843 -6.2734375 123.81640625 C-7.22077759 124.4818042 -7.22077759 124.4818042 -8.18725586 125.16064453 C-20.38454643 133.55747426 -34.00024232 139.50880411 -48.9609375 140.00390625 C-50.11464844 140.04386719 -51.26835937 140.08382812 -52.45703125 140.125 C-72.96045865 140.48176383 -90.72729556 135.28084604 -105.9609375 121.00390625 C-105.9609375 120.34390625 -105.9609375 119.68390625 -105.9609375 119.00390625 C-106.9509375 118.67390625 -107.9409375 118.34390625 -108.9609375 118.00390625 C-110.54118424 116.09518125 -111.94761976 114.23239927 -113.3359375 112.19140625 C-113.93257202 111.31995972 -113.93257202 111.31995972 -114.54125977 110.4309082 C-125.38797441 94.10221132 -127.82660854 74.75526778 -124.74609375 55.66015625 C-119.21956128 29.92466178 -103.38612405 11.2145965 -82.01953125 -3.31640625 C-56.92729189 -18.67406601 -23.79573037 -16.04171269 0 0 Z M-85.9609375 7.00390625 C-86.65445313 7.49503906 -87.34796875 7.98617187 -88.0625 8.4921875 C-98.20787516 16.38521103 -103.67479907 28.31271451 -105.68408203 40.76171875 C-108.50858331 63.6366921 -103.32074688 85.51755731 -89.42578125 103.8828125 C-79.59292724 116.33360546 -67.76902871 125.52853963 -51.9609375 129.00390625 C-48.28121077 129.39184025 -44.65819539 129.42551034 -40.9609375 129.37890625 C-39.58035156 129.39630859 -39.58035156 129.39630859 -38.171875 129.4140625 C-25.10353183 129.35884415 -16.19284167 124.72370667 -6.69921875 115.90234375 C4.24695888 104.43491956 8.57068667 89.78507926 8.390625 74.15722656 C7.59667825 51.03352748 -1.15736697 30.28644014 -17.84765625 14.18359375 C-21.60993472 10.81867953 -25.51942286 8.38916411 -29.9609375 6.00390625 C-30.7653125 5.48828125 -31.5696875 4.97265625 -32.3984375 4.44140625 C-48.75110422 -4.73204093 -70.90791746 -4.43530212 -85.9609375 7.00390625 Z " fill="#898A8A" transform="translate(532.9609375,565.99609375)"/>
<path d="M0 0 C15.42983412 11.77415035 24.13154801 26.15182786 27.9375 45.10546875 C30.13178593 61.43840832 27.52759406 77.3652126 20.3515625 92.1875 C19.90941406 93.11175781 19.46726562 94.03601563 19.01171875 94.98828125 C15.34647693 102.16646952 10.67638389 108.16279089 5.3515625 114.1875 C4.82175781 114.81269531 4.29195312 115.43789063 3.74609375 116.08203125 C-10.48562053 131.70399011 -31.98797786 139.41310693 -52.671875 140.43359375 C-69.45815734 140.72301241 -85.4477107 136.96627527 -98.6484375 126.1875 C-99.47988281 125.53007813 -100.31132812 124.87265625 -101.16796875 124.1953125 C-114.06522548 113.37825847 -122.96519912 98.07418185 -124.6484375 81.1875 C-125.43370781 68.25988273 -124.68573825 56.50895072 -120.6484375 44.1875 C-120.19791016 42.79144531 -120.19791016 42.79144531 -119.73828125 41.3671875 C-112.60154561 21.65620336 -94.19838633 3.31641182 -75.6484375 -5.8125 C-51.60246369 -16.32026116 -21.82981879 -14.939581 0 0 Z M-94.828125 16.7734375 C-105.64621812 31.12017903 -106.91633494 49.40822287 -104.84130859 66.65869141 C-102.15944883 84.8150932 -93.37608528 100.21508976 -80.6484375 113.1875 C-80.03484375 113.82558594 -79.42125 114.46367188 -78.7890625 115.12109375 C-67.92976214 125.53952508 -53.70541387 129.81069143 -38.98046875 130.3125 C-25.91856269 129.84859213 -15.00911479 125.30947149 -5.6484375 116.1875 C1.65867413 108.3220922 6.94315281 97.8385983 8.3515625 87.1875 C8.568125 85.84751953 8.568125 85.84751953 8.7890625 84.48046875 C11.57436081 61.87893348 3.98036924 39.15985154 -9.80859375 21.40625 C-21.29073202 7.95979531 -37.49777593 -0.2998349 -55.11328125 -2.05859375 C-71.27474648 -2.54144948 -84.53093445 4.69947681 -94.828125 16.7734375 Z " fill="#858787" transform="translate(359.6484375,565.8125)"/>
<path d="M0 0 C16.83 0 33.66 0 51 0 C51 1.65 51 3.3 51 5 C50.40832031 5.29132812 49.81664062 5.58265625 49.20703125 5.8828125 C28.87211621 16.431757 22.06587646 47.63074043 14.125 67.625 C12.42068344 71.90941752 10.71475361 76.19318998 9.0078125 80.4765625 C8.59388245 81.51572815 8.17995239 82.5548938 7.753479 83.62554932 C3.56969544 94.11128853 -0.70298617 104.56022883 -5 115 C-5.66 113.68 -6.32 112.36 -7 111 C-8.98 111.495 -8.98 111.495 -11 112 C-11 112.66 -11 113.32 -11 114 C-11.66 114 -12.32 114 -13 114 C-13.33 114.99 -13.66 115.98 -14 117 C-15.11186285 113.66441146 -14.97608123 113.25753445 -13.72753906 110.17236328 C-13.4222377 109.40426331 -13.11693634 108.63616333 -12.80238342 107.8447876 C-12.46025314 107.01171082 -12.11812286 106.17863403 -11.765625 105.3203125 C-11.41636459 104.44824158 -11.06710419 103.57617065 -10.70726013 102.67767334 C-9.95455246 100.8007342 -9.19767592 98.92546267 -8.43710327 97.05169678 C-6.84784469 93.13352212 -5.28161852 89.20628578 -3.71391296 85.27944946 C-2.54082116 82.34230858 -1.36463738 79.40642046 -0.18798828 76.47070312 C14.44384579 45.70197591 14.44384579 45.70197591 15.875 13.1875 C13.62053864 9.35491569 12.1664727 8.44224055 8 7 C5.66905466 6.6503582 3.33595238 6.31445513 1 6 C0.34 5.34 -0.32 4.68 -1 4 C-0.67 2.68 -0.34 1.36 0 0 Z " fill="#838484" transform="translate(184,557)"/>
<path d="M0 0 C0.66 0.33 1.32 0.66 2 1 C2 1.66 2 2.32 2 3 C3.98 3.99 5.96 4.98 8 6 C4.22636499 15.39168714 -8.38337182 21.69168591 -17 26 C-19.36376143 26.89439622 -21.51932942 27.49259011 -24 28 C-24 27.34 -24 26.68 -24 26 C-24.99 26 -25.98 26 -27 26 C-27 25.34 -27 24.68 -27 24 C-27.66 23.67 -28.32 23.34 -29 23 C-27.515 22.6596875 -27.515 22.6596875 -26 22.3125 C-22.08810197 21.22099281 -19.03835811 19.29326504 -15.69921875 17.0234375 C-14 16 -14 16 -12 16 C-11.67 15.01 -11.34 14.02 -11 13 C-9.5625 11.3125 -9.5625 11.3125 -8 10 C-7.34 10 -6.68 10 -6 10 C-5.7525 9.46375 -5.505 8.9275 -5.25 8.375 C-3.70303025 5.43575748 -1.86985631 2.74245592 0 0 Z " fill="#909090" transform="translate(695,669)"/>
<path d="M0 0 C2 4 2 4 4 8 C-2.74202818 14.55039431 -9.91422006 19.3009996 -18 24 C-19.32 22.35 -20.64 20.7 -22 19 C-20.21100048 17.80733366 -18.39936947 16.64612532 -16.546875 15.5546875 C-9.85707205 11.53706841 -3.58089765 7.1617953 0 0 Z " fill="#8B8D8D" transform="translate(359,674)"/>
<path d="M0 0 C2.6875 0.3125 2.6875 0.3125 5 1 C5.33 1.99 5.66 2.98 6 4 C1.3452026 9.13632817 -4.19542561 13.23310229 -10 17 C-10.66 17 -11.32 17 -12 17 C-12.33 15.02 -12.66 13.04 -13 11 C-12.31292969 10.45730469 -11.62585938 9.91460938 -10.91796875 9.35546875 C-10.01691406 8.64003906 -9.11585938 7.92460938 -8.1875 7.1875 C-7.29417969 6.47980469 -6.40085937 5.77210938 -5.48046875 5.04296875 C-3.05178809 3.13450331 -3.05178809 3.13450331 -1.34375 1.21875 C-0.9003125 0.8165625 -0.456875 0.414375 0 0 Z " fill="#8D8D8D" transform="translate(529,678)"/>
<path d="M0 0 C0 3 0 3 0 3 Z M-3 3 C-2.34 3.33 -1.68 3.66 -1 4 C-1.474375 4.61875 -1.94875 5.2375 -2.4375 5.875 C-4.02417441 7.90705546 -4.02417441 7.90705546 -5 10 C-4.34 10.33 -3.68 10.66 -3 11 C-4.28913487 11.67154933 -5.58140204 12.33708859 -6.875 13 C-7.59429688 13.37125 -8.31359375 13.7425 -9.0546875 14.125 C-11 15 -11 15 -13 15 C-13 14.34 -13 13.68 -13 13 C-13.99 13 -14.98 13 -16 13 C-16 12.34 -16 11.68 -16 11 C-16.66 10.67 -17.32 10.34 -18 10 C-16.515 9.6596875 -16.515 9.6596875 -15 9.3125 C-11.0595513 8.22105189 -8.0318136 6.25008611 -4.69921875 3.92578125 C-3.85810547 3.46751953 -3.85810547 3.46751953 -3 3 Z " fill="#9B9B9B" transform="translate(684,682)"/>
<path d="M0 0 C0.125 2.875 0.125 2.875 0 6 C-0.66 6.66 -1.32 7.32 -2 8 C-2.33 7.67 -2.66 7.34 -3 7 C-3.99 7.99 -4.98 8.98 -6 10 C-7.32 9.34 -8.64 8.68 -10 8 C-8.33333333 6.33333333 -6.66666667 4.66666667 -5 3 C-4.443125 2.401875 -3.88625 1.80375 -3.3125 1.1875 C-2 0 -2 0 0 0 Z " fill="#3B3D3C" transform="translate(369,107)"/>
<path d="M0 0 C0 3 0 3 -1.96875 5.04296875 C-2.8040625 5.75066406 -3.639375 6.45835937 -4.5 7.1875 C-5.3353125 7.90292969 -6.170625 8.61835937 -7.03125 9.35546875 C-7.6809375 9.89816406 -8.330625 10.44085937 -9 11 C-8.34 12.32 -7.68 13.64 -7 15 C-8.65 15.66 -10.3 16.32 -12 17 C-12.33 15.02 -12.66 13.04 -13 11 C-12.31292969 10.45730469 -11.62585938 9.91460938 -10.91796875 9.35546875 C-10.01691406 8.64003906 -9.11585938 7.92460938 -8.1875 7.1875 C-7.29417969 6.47980469 -6.40085937 5.77210938 -5.48046875 5.04296875 C-3.52923089 3.43588623 -1.73725024 1.82959577 0 0 Z " fill="#9B9B9B" transform="translate(529,678)"/>
<path d="M0 0 C0.33 0 0.66 0 1 0 C1.91657981 5.38490641 2.11138159 10.54230189 2 16 C-1.33557632 13.0094833 -3.15083921 10.06815373 -5 6 C-3.68 6.33 -2.36 6.66 -1 7 C-0.67 4.69 -0.34 2.38 0 0 Z " fill="#646464" transform="translate(465,160)"/>
<path d="M0 0 C1.32 0 2.64 0 4 0 C4 0.99 4 1.98 4 3 C8.455 2.505 8.455 2.505 13 2 C12.34 3.98 11.68 5.96 11 8 C7.24026115 8 6.54322371 7.03457593 3.8125 4.5625 C3.09707031 3.92441406 2.38164062 3.28632813 1.64453125 2.62890625 C1.10183594 2.09136719 0.55914062 1.55382812 0 1 C0 0.67 0 0.34 0 0 Z " fill="#515453" transform="translate(438,278)"/>
<path d="M0 0 C-0.185625 0.5775 -0.37125 1.155 -0.5625 1.75 C-1.04023546 4.20692525 -0.75729364 5.64397534 0 8 C-0.33 7.34 -0.66 6.68 -1 6 C-1.66 6 -2.32 6 -3 6 C-3.33 6.99 -3.66 7.98 -4 9 C-6 7 -6 7 -6.125 3.875 C-6.08375 2.92625 -6.0425 1.9775 -6 1 C-3 0 -3 0 0 0 Z " fill="#4C4E4D" transform="translate(346,390)"/>
<path d="M0 0 C1.9375 1.1875 1.9375 1.1875 3.9375 3.1875 C1.9575 4.1775 -0.0225 5.1675 -2.0625 6.1875 C-3.0525 4.2075 -4.0425 2.2275 -5.0625 0.1875 C-2.0625 -0.8125 -2.0625 -0.8125 0 0 Z " fill="#9A9A9A" transform="translate(342.0625,691.8125)"/>
<path d="M0 0 C0.66 0.33 1.32 0.66 2 1 C1.3503125 1.5878125 1.3503125 1.5878125 0.6875 2.1875 C-1.11875592 4.00171326 -1.11875592 4.00171326 -2.5 6.5 C-3.83312742 8.72187904 -5.09367418 10.27522902 -7 12 C-7.66 11.67 -8.32 11.34 -9 11 C-7.68823998 9.35357683 -6.3755713 7.70787757 -5.0625 6.0625 C-4.33160156 5.14597656 -3.60070312 4.22945312 -2.84765625 3.28515625 C-1 1 -1 1 0 0 Z " fill="#949494" transform="translate(431,579)"/>
<path d="M0 0 C-1.39332574 3.36720387 -2.9789286 4.9859524 -6 7 C-6.66 6.01 -7.32 5.02 -8 4 C-3.375 0 -3.375 0 0 0 Z " fill="#4A4C4C" transform="translate(322,434)"/>
<path d="M0 0 C2.09785412 2.55390936 3.78252874 4.62919544 4 8 C2.5078125 9.62109375 2.5078125 9.62109375 1 11 C0.63743142 9.5437328 0.28520207 8.08488815 -0.0625 6.625 C-0.35833984 5.40683594 -0.35833984 5.40683594 -0.66015625 4.1640625 C-1 2 -1 2 0 0 Z " fill="#4B4D4D" transform="translate(436,68)"/>
<path d="M0 0 C0.99 0.33 1.98 0.66 3 1 C2.360625 1.78375 1.72125 2.5675 1.0625 3.375 C-0.98142313 5.79539281 -0.98142313 5.79539281 -2 8 C-2.99 8 -3.98 8 -5 8 C-5 4 -5 4 -2.6875 1.6875 C-1.800625 1.130625 -0.91375 0.57375 0 0 Z " fill="#868686" transform="translate(684,684)"/>
<path d="M0 0 C2.18975773 3.28463659 2.99806563 6.20696275 4 10 C3.34 10 2.68 10 2 10 C2 11.98 2 13.96 2 16 C1.67 16 1.34 16 1 16 C0.67 10.72 0.34 5.44 0 0 Z " fill="#7A7A7A" transform="translate(612,199)"/>
<path d="M0 0 C1.65 1.65 3.3 3.3 5 5 C4.34 5.66 3.68 6.32 3 7 C0.375 6.625 0.375 6.625 -2 6 C-1.34 4.02 -0.68 2.04 0 0 Z " fill="#71716F" transform="translate(662,109)"/>
<path d="M0 0 C0.99 0.33 1.98 0.66 3 1 C3.33 2.65 3.66 4.3 4 6 C1.525 7.485 1.525 7.485 -1 9 C-1.07427838 5.65747276 -1.06546953 3.1964086 0 0 Z " fill="#A1A1A1" transform="translate(446,566)"/>
<path d="M0 0 C1.32 0 2.64 0 4 0 C4 0.99 4 1.98 4 3 C5.32 3 6.64 3 8 3 C7.67 4.32 7.34 5.64 7 7 C5.83040013 6.02433888 4.66438823 5.044375 3.5 4.0625 C2.8503125 3.51722656 2.200625 2.97195313 1.53125 2.41015625 C1.0259375 1.94480469 0.520625 1.47945313 0 1 C0 0.67 0 0.34 0 0 Z " fill="#646766" transform="translate(438,278)"/>
<path d="M0 0 C0.99 0 1.98 0 3 0 C3 0.99 3 1.98 3 3 C1 5 1 5 -2 7 C-1.34 4.69 -0.68 2.38 0 0 Z " fill="#818181" transform="translate(92,662)"/>
<path d="M0 0 C0.66 0.33 1.32 0.66 2 1 C2.625 3.5625 2.625 3.5625 3 6 C1.68 5.67 0.36 5.34 -1 5 C-0.67 3.35 -0.34 1.7 0 0 Z " fill="#2B2B2B" transform="translate(44,416)"/>
<path d="M0 0 C0.75 1.75 0.75 1.75 1 4 C-0.9375 6.25 -0.9375 6.25 -3 8 C-3.33 7.34 -3.66 6.68 -4 6 C-2.68 4.02 -1.36 2.04 0 0 Z " fill="#737373" transform="translate(674,400)"/>
<path d="M0 0 C2.52588702 2.36292656 3.88820837 3.66462511 5 7 C4.01 7 3.02 7 2 7 C0 4 0 4 0 0 Z " fill="#5E6060" transform="translate(413,325)"/>
<path d="M0 0 C2.97 1.98 2.97 1.98 6 4 C3 5 3 5 0.8125 4.0625 C0.214375 3.711875 -0.38375 3.36125 -1 3 C-0.67 2.01 -0.34 1.02 0 0 Z " fill="#5A5B5B" transform="translate(412,134)"/>
</svg>
